<?xml version="1.0" encoding="UTF-8"?>
<!DOCTYPE svg PUBLIC "-//W3C//DTD SVG 1.1//EN" "http://www.w3.org/Graphics/SVG/1.1/DTD/svg11.dtd">
<!-- Creator: CorelDRAW 2018 (64 Bit) -->
<svg xmlns="http://www.w3.org/2000/svg" xml:space="preserve" width="138.953mm" height="8.6233mm" version="1.1" style="shape-rendering:geometricPrecision; text-rendering:geometricPrecision; image-rendering:optimizeQuality; fill-rule:evenodd; clip-rule:evenodd"
viewBox="0 0 47754.67 2963.62"
 xmlns:xlink="http://www.w3.org/1999/xlink">
 <defs>
  <style type="text/css">
   <![CDATA[
    .fil5 {fill:#2C2C2E}
    .fil3 {fill:#65C5C2}
    .fil1 {fill:#79CCCF}
    .fil6 {fill:#8A8A8C}
    .fil4 {fill:#9B9B9D}
    .fil0 {fill:#AEDFE3}
    .fil2 {fill:#D2ECF0}
   ]]>
  </style>
 </defs>
 <g id="Capa_x0020_1">
  <metadata id="CorelCorpID_0Corel-Layer"/>
  <path class="fil0" d="M30120.51 12.1l4.3 801.52 6427.56 12.03 -2.2 -767.77 6128.9 -10.41 5073.65 14.23c-55.81,-92.21 -70.08,-54.34 -239.37,-51.96 -2826.15,39.28 -5739.86,3.09 -8568.14,3.09l-6604.45 6.29c-722.75,0 -1504.82,50.38 -2220.25,-7.01z"/>
  <path class="fil1" d="M36552.36 825.61l7.56 7.22 11131.72 -12.68c112.59,-6.74 26.5,10.86 63.03,-73.27l-5077.77 25.29c35.33,-180.98 31.72,-536.99 2.13,-724.74l-6128.87 10.41 2.17 767.77 0.03 0z"/>
  <polygon class="fil2" points="36559.92,832.83 36552.36,825.61 30124.84,813.55 30120.51,12.1 23844.68,22.1 23846.95,807.26 "/>
  <path class="fil3" d="M47754.67 746.91l-1.96 -685.25 -5073.68 -14.26c29.59,187.78 33.2,543.8 -2.13,724.74l5077.77 -25.29 0 0.07z"/>
  <path class="fil4" d="M40993.02 2958.91l464.96 -2.13c8.18,-58.39 19.07,-31.45 14.78,-116.92 -9.21,-182.73 -4.78,-63.72 -29.87,-116.3l16.87 208.65c-82.96,-9.24 -157.03,-8.69 -238.72,-8.83 -96.85,-0.24 -165.51,-21.89 -227.99,35.5l-0.03 0.03z"/>
  <path class="fil5" d="M33001.33 2561.48c71.69,-43.41 117.37,-154.96 134.45,-257.79 -110.18,-5.4 -108.95,65.68 -134.45,257.79z"/>
  <path class="fil6" d="M39854.22 2963.62l241.43 -5.71c2.61,-49.18 11.44,-73.03 7.11,-117.3 -10.31,-105.78 -0.21,-50.9 -32.55,-109.39l19.93 214.38c-82.1,-14.3 -165.93,-36.5 -235.93,18.01z"/>
  <path class="fil0" d="M17634.16 24.99l-4.3 801.52 -6427.56 12.03 2.17 -767.77 -6128.87 -10.41 -5073.65 14.23c55.81,-92.21 70.08,-54.34 239.37,-51.96 2826.15,39.28 5739.83,3.09 8568.14,3.09l6604.45 6.29c722.72,0 1504.82,50.38 2220.25,-7.01z"/>
  <path class="fil1" d="M11202.31 838.5l-7.56 7.22 -11131.75 -12.68c-112.55,-6.74 -26.46,10.86 -63,-73.27l5077.77 25.29c-35.33,-180.98 -31.72,-536.99 -2.13,-724.74l6128.87 10.41 -2.17 767.77 -0.03 0z"/>
  <polygon class="fil2" points="11194.75,845.72 11202.31,838.5 17629.83,826.44 17634.16,24.99 23909.98,34.99 23907.68,820.15 "/>
  <path class="fil3" d="M-0 759.8l1.96 -685.25 5073.68 -14.26c-29.59,187.78 -33.2,543.8 2.13,724.74l-5077.77 -25.29 0 0.07z"/>
 </g>
</svg>
