<?xml version="1.0" encoding="UTF-8"?>
<!DOCTYPE svg PUBLIC "-//W3C//DTD SVG 1.1//EN" "http://www.w3.org/Graphics/SVG/1.1/DTD/svg11.dtd">
<!-- Creator: CorelDRAW -->
<svg xmlns="http://www.w3.org/2000/svg" xml:space="preserve" width="378.173mm" height="649.929mm" version="1.1" style="shape-rendering:geometricPrecision; text-rendering:geometricPrecision; image-rendering:optimizeQuality; fill-rule:evenodd; clip-rule:evenodd"
viewBox="0 0 7681.53 13201.52"
 xmlns:xlink="http://www.w3.org/1999/xlink"
 xmlns:xodm="http://www.corel.com/coreldraw/odm/2003">
 <defs>
  <style type="text/css">
   <![CDATA[
    .str0 {stroke:#6B6C6F;stroke-width:4.06;stroke-miterlimit:22.9256}
    .fil21 {fill:#2C2C2E}
    .fil14 {fill:#353535}
    .fil13 {fill:#373739}
    .fil12 {fill:#373739}
    .fil6 {fill:#65C5C2}
    .fil0 {fill:#67C6C3}
    .fil19 {fill:#6A6B6E}
    .fil11 {fill:#6B6C6F}
    .fil9 {fill:#6B6C6F}
    .fil10 {fill:#6C6D70}
    .fil3 {fill:#79CCCF}
    .fil22 {fill:#8A8A8C}
    .fil18 {fill:#97989B}
    .fil16 {fill:#999A9C}
    .fil20 {fill:#9B9B9D}
    .fil7 {fill:#AEDFE3}
    .fil4 {fill:#AEDFE3}
    .fil15 {fill:#AFDFE3}
    .fil17 {fill:#B6B7B8}
    .fil8 {fill:#D2ECF0}
    .fil5 {fill:#D4ECF1}
    .fil1 {fill:#D4EDF1}
    .fil2 {fill:#EFF9FD}
   ]]>
  </style>
 </defs>
 <g id="Capa_x0020_1">
  <metadata id="CorelCorpID_0Corel-Layer"/>
  <g id="_2691665400656">
   <path class="fil0" d="M3674.03 5577.36c-23.98,50.15 -122.69,71.93 -189,39.68 -70.75,-34.41 -49.97,-118.74 -49.97,-204.42l0 -2528.47c0,-118.84 -12.27,-963.54 10.38,-1003.23 26.66,-46.71 124.18,-62.41 185.89,-34.07 69.34,31.85 48.34,111.12 48.34,199.25 0,526.43 7.22,3504.36 -5.64,3531.26zm2273.46 -1687.41c25.97,18.4 135.36,300.56 147.69,345.23l-406 1.08 258.3 -346.31zm-1036.85 345.62c9.28,-39.55 124.92,-261.04 155.63,-326.78l38.32 -83.28c14.04,-20.25 -1.16,-8.72 21.52,-18.14l71.16 429.35 -286.63 -1.15zm-258.23 -276.62l30.17 277.28 -147.28 -0.22 93.62 -248.35c15.04,-36.07 0.34,-18.26 23.49,-28.72zm-62.7 -261.11c59.17,113.29 6.83,176.72 -35.8,279.15 -21.01,50.48 -80.12,226.38 -106,254.12 -19.73,-95.82 -44.65,-189.93 -76.94,-280.13 -29.45,-82.27 -77.13,-180.99 -99.15,-257.43 92.13,-39.69 222.71,-7.64 317.9,4.29zm1925.19 538.97l-177.89 -0.64c3.1,-116.82 70.05,-268.23 111.82,-363.92 36.53,-83.68 135.92,-264.01 189.98,-291.65l-123.9 656.21zm-1692.23 0.24l-67.07 -4.07c-11.69,-139.19 -23.85,-263.31 -52.44,-399.6 -25.43,-121.29 -63.67,-246.51 -85,-363.16 124.75,-18.91 218.25,-0.48 329.7,40.36 40.62,14.88 103.23,36.83 122.17,71.46 62.28,113.89 -56.74,253.7 -127.56,403.58 -39.73,84.09 -80.59,169.54 -119.8,251.44zm1432.28 -0.78l-76.71 -0.03 -164.82 -406.62c16.88,-32.37 88.86,-95.92 116.37,-118.71 142.26,-117.87 248.75,-204.35 469.34,-237.52l-108.92 160.97c-145.76,232.58 -168.87,325.94 -235.26,601.91zm-4111.49 -1065.6c80.62,-61.38 279.04,-88.32 408.33,-23.15 115.74,58.35 191.91,165.37 206.71,309.62 15.01,146.29 -14.33,307.86 -102.04,421.52 -15.58,20.19 -24.85,24.93 -40.39,45.52 -184.94,245.19 -141.41,684.98 -238.61,792.91 -38.73,43.01 -25.31,35.42 -52.98,45.11 -50,-70.15 -46.14,-63.33 -65.43,-176.83 -33.18,-195.22 -36.3,-499.26 -232.08,-501.25 -238.55,-2.42 -187.55,411.36 -253.45,602.32 -14.16,41.03 -31.11,44.68 -45.83,75.38 -67.41,-35.42 -61.79,-42.91 -86.77,-123.82 -63.63,-206.11 -61.86,-375.39 -107.05,-516.4 -76.4,-238.4 -248.47,-270.81 -245.64,-592.8 2.19,-247.87 153.89,-433.89 406.99,-421.03 125.3,6.37 211.04,66.56 301.63,114.43 136.89,72.35 208.32,148.03 290.46,77.39 -16.44,-47.33 -22.33,-62.64 -56.21,-82.4 -27.22,-15.87 -66.67,-28.14 -87.63,-46.53zm2848.4 -36.96c238.24,-0.42 566.28,233.26 709.82,397.2 70.65,80.69 176.32,189.94 207.23,290.32 -9.9,11.65 -17.55,21.27 -29.03,34.03 -42.02,46.69 -24.39,11.74 -88.21,105.19l-162.5 231.63c-28.65,37.45 -28.24,45.17 -89.93,45.56 -86.96,0.55 -178.44,2.76 -265.01,-0.29 -63.43,-437.45 -112.27,-704.74 -282.38,-1103.64zm-1317.42 -2975.87c-497.22,-1.29 -1040.23,165.78 -1442.01,353.12 -222.95,103.95 -509.49,287.15 -685.63,432.12l-407.52 380.68c-9.2,11.72 -15.74,21.54 -25.74,31.71 -13.6,13.84 -16.28,12.32 -28.93,28.17 -116.64,146.13 -174.23,205.5 -290.76,382.88 -110.25,167.82 -225.87,370.23 -312.86,582.68 -193.28,472.04 -299.35,965.46 -279.95,1516.53 27.46,780.13 310.34,1546.52 782.7,2123.79l380.4 407.66c11.97,9.46 21.27,15.42 32.14,25.42l57.13 50.31c138.81,113.96 175.32,151.51 353.87,269.39 633,417.88 1311.37,604.07 2102.08,594.22 707.89,-8.82 1459.64,-286.32 1998.38,-688.6l125.67 -96.38c72.08,-56.26 150.1,-116.91 210.21,-183.87 28.2,-31.41 84.57,-75 144.26,-142.55l54.73 -52.52c152.29,-177.37 198.9,-237.98 343.63,-444.73 399.51,-570.7 622.48,-1380.41 593.97,-2098.78 -30.5,-768.53 -302.99,-1541.36 -784.4,-2123.46l-153.72 -183.15c-19.61,-24.43 -37.31,-33 -58.13,-56.33l-475.5 -420.17c-195.93,-146.28 -482.58,-310.44 -723.52,-408.69 -513.98,-209.59 -920.42,-277.91 -1510.5,-279.44z"/>
   <path class="fil1" d="M3674.45 157.84c590.08,1.53 996.52,69.85 1510.5,279.44 240.95,98.25 527.59,262.42 723.52,408.69l475.5 420.17c20.82,23.34 38.52,31.9 58.13,56.33l153.72 183.15c481.4,582.1 753.9,1354.93 784.4,2123.46 28.51,718.37 -194.46,1528.08 -593.97,2098.78 -144.73,206.75 -191.34,267.36 -343.63,444.73l-54.73 52.52c-59.69,67.55 -116.06,111.14 -144.26,142.55 -60.11,66.96 -138.13,127.61 -210.21,183.87l-125.67 96.38c-538.74,402.28 -1290.48,679.78 -1998.38,688.6 -790.71,9.85 -1469.08,-176.34 -2102.08,-594.22 -178.55,-117.87 -215.07,-155.43 -353.87,-269.39l-57.13 -50.31c-10.88,-10 -20.17,-15.96 -32.14,-25.42l-380.4 -407.66c-472.36,-577.26 -755.23,-1343.66 -782.7,-2123.79 -19.4,-551.07 86.67,-1044.49 279.95,-1516.53 86.99,-212.46 202.61,-414.87 312.86,-582.68 116.53,-177.38 174.12,-236.75 290.76,-382.88 12.65,-15.84 15.32,-14.32 28.93,-28.17 10,-10.17 16.54,-19.99 25.74,-31.71l407.52 -380.68c176.13,-144.97 462.68,-328.17 685.63,-432.12 401.78,-187.34 944.79,-354.41 1442.01,-353.12zm3861.44 3750.59c18.65,-589.9 -76.22,-1086.09 -278.7,-1588.06 -91.84,-227.69 -205.9,-431.5 -323.04,-615.58 -46.53,-73.11 -192.32,-274.61 -251.95,-342.78l-312.8 -332.17c-34.09,-41.7 -109.1,-99.11 -153.47,-140.23 -178.2,-165.15 -554.91,-400.73 -774.73,-507.99 -949.36,-463.27 -2095.29,-514.58 -3079.7,-99.88 -480.73,202.52 -686.69,361.34 -1047.62,650.87l-378.94 387.43c-172.84,190.47 -395.21,540.83 -509.2,773.43 -465.57,950 -514.95,2097.61 -102.62,3080.61 129.44,308.59 353.14,701.14 575.41,957.94l339.35 362.62c287.18,249.41 532.24,437.8 901.09,618.27 954.37,466.95 2093.78,510.45 3080.06,100.2 244.52,-101.71 556.23,-269.08 755.36,-419.73l130.42 -98.73c98.54,-75.7 122.94,-106.43 190.3,-160.84 53,-42.82 276.42,-264.32 324.82,-327.4 85.11,-110.93 189.47,-220.94 277.24,-360.53 119.84,-190.6 146.72,-245.15 257.35,-444.74 100.41,-181.16 200.08,-477.78 256.61,-681.4 68.36,-246.22 116.38,-545.82 124.78,-811.31z"/>
   <path class="fil2" d="M2143.47 3170.66c20.96,18.39 60.41,30.65 87.63,46.53 33.88,19.76 39.77,35.08 56.21,82.4 -82.14,70.64 -153.56,-5.04 -290.46,-77.39 -90.58,-47.87 -176.33,-108.06 -301.63,-114.43 -253.11,-12.86 -404.81,173.15 -406.99,421.03 -2.84,321.99 169.24,354.39 245.64,592.8 45.19,141.01 43.41,310.29 107.05,516.4 24.98,80.91 19.36,88.4 86.77,123.82 14.72,-30.69 31.67,-34.35 45.83,-75.38 65.9,-190.96 14.9,-604.74 253.45,-602.32 195.79,1.99 198.91,306.03 232.08,501.25 19.29,113.5 15.43,106.68 65.43,176.83 27.67,-9.69 14.25,-2.1 52.98,-45.11 97.21,-107.93 53.68,-547.72 238.61,-792.91 15.54,-20.6 24.81,-25.34 40.39,-45.52 87.71,-113.66 117.05,-275.23 102.04,-421.52 -14.8,-144.26 -90.96,-251.28 -206.71,-309.62 -129.29,-65.18 -327.71,-38.23 -408.33,23.15z"/>
   <path class="fil2" d="M3674.03 5577.36c12.86,-26.9 5.64,-3004.83 5.64,-3531.26 0,-88.13 21.01,-167.4 -48.34,-199.25 -61.71,-28.35 -159.22,-12.64 -185.89,34.07 -22.65,39.68 -10.38,884.39 -10.38,1003.23l0 2528.47c0,85.69 -20.78,170.02 49.97,204.42 66.31,32.25 165.02,10.48 189,-39.68z"/>
   <path class="fil2" d="M4991.87 3133.71c170.1,398.9 218.95,666.19 282.38,1103.64 86.57,3.05 178.05,0.84 265.01,0.29 61.69,-0.39 61.27,-8.11 89.93,-45.56l162.5 -231.63c63.82,-93.45 46.19,-58.5 88.21,-105.19 11.48,-12.76 19.12,-22.38 29.03,-34.03 -30.91,-100.38 -136.58,-209.62 -207.23,-290.32 -143.54,-163.94 -471.59,-397.62 -709.82,-397.2z"/>
   <path class="fil2" d="M4618.17 3470.2c21.33,116.65 59.57,241.87 85,363.16 28.58,136.3 40.74,260.42 52.44,399.6l67.07 4.07c39.21,-81.89 80.07,-167.35 119.8,-251.44 70.83,-149.88 189.84,-289.69 127.56,-403.58 -18.94,-34.63 -81.55,-56.58 -122.17,-71.46 -111.45,-40.84 -204.96,-59.27 -329.7,-40.36z"/>
   <path class="fil2" d="M6254.96 4236.26c66.39,-275.97 89.5,-369.34 235.26,-601.91l108.92 -160.97c-220.59,33.17 -327.07,119.65 -469.34,237.52 -27.51,22.79 -99.5,86.35 -116.37,118.71l164.82 406.62 76.71 0.03z"/>
   <path class="fil2" d="M4271.81 3693.55c22.03,76.43 69.7,175.16 99.15,257.43 32.29,90.2 57.21,184.31 76.94,280.13 25.88,-27.74 84.99,-203.64 106,-254.12 42.63,-102.43 94.97,-165.86 35.8,-279.15 -95.19,-11.93 -225.77,-43.98 -317.9,-4.29z"/>
   <path class="fil2" d="M6638.81 3580.59c-54.06,27.63 -153.45,207.96 -189.98,291.65 -41.77,95.69 -108.72,247.1 -111.82,363.92l177.89 0.64 123.9 -656.21z"/>
   <path class="fil2" d="M5689.18 4236.26l406 -1.08c-12.33,-44.67 -121.73,-326.82 -147.69,-345.23l-258.3 346.31z"/>
   <path class="fil2" d="M4910.63 4235.57l286.63 1.15 -71.16 -429.35c-22.67,9.42 -7.47,-2.1 -21.52,18.14l-38.32 83.28c-30.72,65.74 -146.35,287.23 -155.63,326.78z"/>
   <path class="fil2" d="M4652.41 3958.94c-23.15,10.45 -8.45,-7.36 -23.49,28.72l-93.62 248.35 147.28 0.22 -30.17 -277.28z"/>
  </g>
  <path class="fil3" d="M3981.73 12025.99l182.23 -3.05 -0.2 -1123.96c34.43,44.22 65.04,91.32 96.56,137.16l573.25 845.16c25.43,37.05 63.87,107.27 96.59,140.33l194.36 1.58 -0.28 -1430.85 -177.7 -0.21c-11.54,46.38 -6.55,1004.44 -3.25,1123.36 -25.17,-15.73 -530.5,-778.9 -575.17,-844.08l-191.67 -279.56 -190.43 0.32c-11.83,45.91 -3.81,1346.55 -4.31,1433.79z"/>
  <path class="fil4" d="M2717.64 11846.44c230.95,8.49 424.89,18.89 594.94,-94.87 228.95,-153.16 320.55,-456.85 165.88,-715.03 -169.14,-282.33 -464.51,-281.46 -762.99,-268.2l2.17 1078.1zm-181.86 179.13c317.19,-39.66 656.03,97.29 984.34,-209.79 122.9,-114.95 214.66,-320.44 213.99,-510.55 -1.45,-411.87 -343.59,-701.92 -717.53,-712.43 -151.65,-4.26 -326.02,-5.22 -477.34,-0.09l-3.46 1432.87z"/>
  <path class="fil3" d="M5487.83 12023.35l884.21 -0.19 -0.23 -177.63 -705.33 -0.01c0.64,-103.82 -13.59,-495.11 4.15,-565.19l627.31 0.01 -0.96 -178.74 -630.53 -1.06 0.77 -331.73c34.57,-15.54 642.65,-10.96 720.2,-3.2l2.12 -169.96 -900.99 -2.03 -0.71 1429.73z"/>
  <path class="fil5" d="M122.76 11670l-59.68 64.96c-12.37,14.44 -51.01,56.75 -57.01,73.14 31.44,18.82 81.09,63.27 150.59,105.57 174.9,106.45 446,169.18 635.72,84.83 121.91,-54.21 216.97,-128.55 257.84,-265.64 50.25,-168.56 -17.18,-306.3 -109.5,-387.86 -88.38,-78.09 -239.65,-111.96 -380.4,-142.99 -137.53,-30.32 -306.84,-68.07 -322.21,-206.79 -23.77,-214.65 264.86,-299.53 492.28,-192.01 86.4,40.84 144.63,91.1 164.03,100.05 22.55,-22.41 104.56,-116.46 111.7,-139.37 -186.21,-171.74 -533.67,-261.76 -780.49,-98.46 -244.85,162.01 -230.19,520.52 64.02,642.5 129.05,53.51 279.09,65.45 412.77,110.48 68.48,23.07 121.14,54.45 154.79,102.93 54.76,78.89 31.5,200.38 -61.15,272.8 -166.05,129.81 -432.57,47.44 -597.13,-66.31 -19.86,-13.72 -61.03,-50.97 -76.18,-57.85z"/>
  <path class="fil5" d="M1685.87 12019.28l183.71 4.12 2.19 -723.23c7.94,-27.01 490.52,-677.71 497.28,-707.99 -44.72,-0.3 -89.44,0.06 -134.17,-0.1 -70.41,-0.25 -73.43,-13.39 -105.79,34.52 -37.52,55.54 -77.97,110.31 -116.41,163.1 -19.79,27.18 -209.44,304.78 -240.04,323.67 -24.08,-48.94 -79.13,-114.02 -113.66,-163.65l-172.84 -242.91c-21.64,-30.45 -37.84,-50.45 -59.94,-83.25 -29.61,-43.97 -37.24,-31.76 -101.62,-31.48 -45.87,0.2 -94.13,-1.58 -139.61,0.73 23.92,42.76 63.69,93.98 92.9,135.81 34.78,49.79 67.74,92.38 101.52,142.18l251.15 350.56c7.64,10.33 47.26,64.46 50.34,72.37 12.34,31.71 5.44,663.49 4.99,725.56z"/>
  <path class="fil6" d="M6990.08 12019.82l183.46 3.46c-0.38,-60.47 -5.69,-692.86 2.96,-722.43 7.99,-27.3 488.47,-677.68 496.91,-708.95l-212.83 0.49c-33.06,35.92 -65.04,88.59 -92.47,126.41 -32.52,44.82 -63.86,86.55 -96.13,133.08l-191.31 259.46c-22.79,-26.45 -38.14,-51.53 -57.48,-77.99l-293.32 -408.84c-30.23,-45.04 -34.18,-32.57 -100.75,-32.26 -46.14,0.21 -94.99,-3.41 -139.87,2.1l397.09 561.17c134.79,186.24 103.86,103.86 103.86,378.89 0,161.78 0.53,323.65 -0.1,485.42z"/>
  <path class="fil7" d="M2016.22 12389.73l1.39 145.14 2064.97 2.18 -0.7 -139.03 1969.02 -1.89 1630.01 2.58c-17.93,-16.7 -22.52,-9.84 -76.91,-9.41 -907.95,7.11 -1844.03,0.56 -2752.67,0.56l-2121.81 1.14c-232.19,0 -483.45,9.12 -713.3,-1.27z"/>
  <path class="fil3" d="M4082.58 12537.04l2.43 1.31 3576.28 -2.3c36.17,-1.22 8.51,1.97 20.24,-13.27l-1631.33 4.58c11.35,-32.77 10.19,-97.24 0.69,-131.24l-1969.02 1.89 0.7 139.03z"/>
  <polygon class="fil8" points="4085.01,12538.35 4082.58,12537.04 2017.61,12534.86 2016.22,12389.73 -0,12391.54 0.73,12533.72 "/>
  <path class="fil6" d="M7681.53 12522.79l-0.63 -124.09 -1630.01 -2.58c9.5,34 10.66,98.47 -0.69,131.24l1631.33 -4.58z"/>
  <path class="fil9" d="M1822.87 9420.44c-346.68,55.48 -249.37,563.82 78.13,504.85 330.4,-59.5 239.58,-555.69 -78.13,-504.85zm1.79 -82.17c-175.93,16.19 -319.81,172.01 -302.63,366.46 15.61,176.71 172.67,320.93 368.49,303.18 174.21,-15.79 325.58,-173.17 301.95,-371.68 -20.45,-171.72 -172.44,-315.95 -367.81,-297.97z"/>
  <path class="fil9" d="M425.67 9424.51c-326.61,83.4 -204.69,575.2 116.86,498.22 119.28,-28.56 225.19,-150.77 191.5,-304.92 -26.54,-121.46 -156.7,-232.02 -308.36,-193.3zm18.17 -84.82c-174.07,23.56 -316.67,178.44 -291.57,380.5 21.04,169.36 183.29,313.49 381.36,286.16 170.76,-23.57 312.95,-182.33 285.88,-381.42 -22.51,-165.57 -182.72,-311.36 -375.67,-285.24z"/>
  <path class="fil9 str0" d="M3686.02 9420.1c-332.71,44.03 -267.99,556.09 71.64,506.4 126.64,-18.53 237.8,-146.04 211.29,-296.65 -21.7,-123.31 -136.93,-229.07 -282.93,-209.75zm-9.31 -80.4c-173.89,23.5 -317.28,179.55 -291.23,381.02 21.9,169.4 181.45,313.21 381.49,285.43 170.05,-23.62 312.37,-181.78 285.55,-381.25 -22.28,-165.73 -183.39,-311.2 -375.81,-285.19z"/>
  <path class="fil9" d="M994.33 9921.47c105.94,-2.53 182.48,13.7 264.68,-42.53 163.86,-112.1 130.24,-319.69 1.64,-400.57 -87.65,-55.13 -155.8,-40.82 -268.11,-43.1l1.79 486.2zm-82.36 76.41c230.31,39.41 538.23,-26.75 538.85,-318.45 0.29,-138.93 -77.92,-224.46 -154.13,-273.13 -42.98,-27.45 -102.77,-46.79 -165.41,-48.96 -46.94,-1.63 -179.5,-5.18 -219.01,2.99l-0.3 637.55z"/>
  <path class="fil10" d="M2298.44 10000.81l79.55 -0.35 1.38 -501.16c3.21,2.63 315.76,449.34 342.44,501.45l87.9 -0.18 1.8 -643.94 -81.83 0.61 -0.55 501.62c-31.9,-30.62 -328.86,-479.56 -340.66,-502.16l-86.38 0.34c-11.05,39.3 -9.75,576.26 -3.65,643.77z"/>
  <path class="fil11" d="M3617.38 8455.63c17.12,36.57 58.2,88.78 82.96,124.73l254.95 372.24 82.82 0.65c18.62,-119.84 -14.38,-541.71 6.55,-642.79l-86.57 -1.32 0.45 501.42 -338.53 -500.47 -90.83 -1 -2.1 640.06 78.54 2.63 -0.59 -506.73 12.35 10.59z"/>
  <path class="fil10" d="M4897.72 9420.25c314.35,-47.68 409.45,442.36 77.41,505.25 -324.52,61.47 -428.37,-452.01 -77.41,-505.25zm-3.83 -81.38c-175.3,19.87 -318.51,176.33 -297.38,372.77 18.59,172.81 176.82,318.23 375.69,295.48 172.81,-19.77 319.55,-178.43 293.4,-377.27 -22.01,-167.34 -177.29,-313.02 -371.71,-290.99z"/>
  <path class="fil10" d="M5942.73 9589.55l-272.09 -2.89 -0.7 78.16 187.42 2.56c2.45,55.1 15.22,164.71 -14.59,193.14 -128.65,122.71 -350.13,78.48 -416.4,-96.68 -66.33,-175.33 70.48,-360.2 262.52,-345.17 52.68,4.12 131.21,31.64 147.33,70.12 24.53,-11.37 53.04,-30.32 65.37,-52.85 -30.45,-48.61 -128.25,-88.78 -193.84,-96.58 -90.57,-10.78 -174.8,17.47 -234.96,58.45 -180.16,122.71 -212.83,435.95 34.13,572.31 69.8,38.54 164.66,52.06 250.36,27.07 39.3,-11.46 67.23,-27.16 96.77,-46.16 18.21,-11.71 68.78,-52.19 78.63,-71.78 23.79,-47.33 -10.59,-225.49 10.05,-289.69z"/>
  <path class="fil10" d="M5274.83 8685.81c10.42,-42.15 78.63,-224.84 99.87,-252.26l94.81 252.85 -194.67 -0.6zm-360.02 606.69c41.02,2.36 41.44,-9.23 60.38,-33.69 19.29,-24.9 27.32,-33.97 44.7,-62.71l-62.29 1.28 -42.79 95.12zm168.05 -341.13l83.88 1.96 73.67 -184.61 265.53 -1.95c8.63,40.01 52.9,152.13 71,186.79l82.58 -0.16c-2.1,-31.88 -187.54,-491.16 -229.48,-603.9 -2,-5.37 -5.71,-15.73 -8.03,-20.42 -6.98,-14.13 -4.11,-9.4 -11.55,-18.62l-78.86 -0.48 -248.74 641.4z"/>
  <path class="fil10" d="M7244.66 9479.76c17.45,48.19 89.83,218.11 92.21,253.23l-193.01 -1 100.81 -252.23zm-292 518.96l86.74 2.14 70.92 -186.21 265.19 -1.23 69.01 187.65 86.18 -0.77c-7.57,-39.38 -42.7,-116.68 -59.46,-159.53 -30.75,-78.63 -179.44,-452.12 -180.63,-480.71l-88.06 -3.13 -249.88 641.79z"/>
  <path class="fil10" d="M6898.97 9878.45c-17.09,-19.15 -43.28,-40.15 -62.03,-47.18 -43.96,30.45 -121.11,139.82 -287.61,85.03 -91.34,-30.05 -171.75,-117.03 -174.75,-236.77 -5.07,-202.7 250.14,-381.59 462.36,-161.89 21.54,-12.51 45.98,-26.23 61.41,-45.91 -180.56,-249.2 -596.23,-133.67 -603.74,193.35 -3.65,158.82 100.19,278.55 212.94,322.29 170.93,66.31 325.07,-18.28 391.43,-108.93z"/>
  <path class="fil11" d="M5028.75 8827.02c-9.81,-6.69 -14.2,-10.96 -27.28,-20.88 -0.71,-0.54 -15.86,-11.46 -16.67,-11.96 -16.13,-9.98 0.56,-2.77 -18.78,-9.77 -25.59,20.24 -29.5,32.5 -51.04,48.82 -14.05,10.65 -43.99,26.56 -65.73,34.55 -161.7,59.44 -344.64,-59.11 -344.78,-241.17 -0.17,-231.22 291.25,-356.21 461.55,-156.46 22.11,-11.26 43.57,-25.31 62.01,-44.08 -18.83,-43.29 -85.36,-91.44 -147.97,-114.81 -70.34,-26.26 -158.26,-28.01 -231.09,-1.89 -116.32,41.72 -225.07,153.57 -224.95,317.24 0.19,241.39 240.38,393.43 451.14,317.68 68.23,-24.52 130.69,-70.76 153.58,-117.27z"/>
  <path class="fil11" d="M2621.48 8827.15c-16.93,-15.64 -45.01,-35.18 -56.84,-43.01l-26.42 23.82c-162.88,160.37 -440.69,48.02 -438.68,-181.37 1.08,-123.22 76.92,-207.27 167.12,-240.17 79.55,-29.01 173.6,-17.55 240.11,33.05l53.37 47.93c0.92,0.71 2.89,2.22 4.49,3.09 14.69,-8.37 14.76,-8.54 30.39,-20.83 19.93,-15.66 19.25,-12.91 29.62,-34.71 -25.84,-11.78 -157.15,-188.11 -383.76,-104.87 -301.98,110.92 -287.11,532.83 -0.2,633.28 186.59,65.33 360.55,-54.31 380.79,-116.21z"/>
  <path class="fil11" d="M4155.21 10000.8l431.92 -0.36 2.74 -79.87 -352.46 0.42 -1.35 -563.93 -77.32 -0.04c-11.09,40.19 -9.72,576.08 -3.53,643.78z"/>
  <polygon class="fil11" points="2924.75,9435.16 3093.34,9437.51 3094.58,10000.3 3175.23,10000.63 3177.01,9439.24 3347.25,9437.15 3346.8,9357.06 2925.36,9357.31 "/>
  <polygon class="fil11" points="3162.44,8951.78 3161.06,8873.62 2811.34,8873.69 2808.24,8310.19 2729.1,8309.92 2729.59,8953.29 "/>
  <polygon class="fil11" points="4221.07,8952.58 4304.18,8954.35 4303.31,8308.99 4220.82,8309.96 "/>
  <polygon class="fil11" points="6091.46,10004.43 6171.92,10001.33 6173.7,9356.71 6091.94,9357.36 "/>
  <polygon class="fil11" points="3353.37,8309.98 3276.01,8308.42 3277.47,8951.14 3355.1,8949.85 "/>
  <path class="fil12" d="M2831.43 13052.75c14.81,153.7 254.01,131.08 229.37,-35.73 -22.59,-152.99 -245.49,-131.52 -229.37,35.73zm73.38 -172.58c-203.67,66.31 -104.25,380.77 92.72,311.44 67.27,-23.68 122.51,-110.03 96.75,-202.39 -20.35,-72.97 -91.33,-141 -189.47,-109.05z"/>
  <path class="fil13" d="M3399.68 12955.03c18.57,14.5 69,104.16 85.95,129.97 17.94,27.31 27.26,42.21 44.29,70.45 22.19,36.79 18.83,40.78 66.71,39.83 1.59,-44.9 9.73,-289.6 -6.93,-313.36l-30.16 -0.17 -0.67 241.13c-22.6,-26.28 -144.32,-216.59 -151.58,-241.47l-44.56 1.87c-2.36,49.74 -9.13,284.41 4.75,312.05l32.43 0.73 -0.24 -241.02z"/>
  <path class="fil13" d="M1435.87 13196.09l32.03 -0.76c16.06,-30.69 6.04,-190.92 5.4,-239 9.15,7.77 4.13,2.26 12.72,12.64l75.39 119.25c55.83,86.74 52.28,106.63 108.99,107.81l0.76 -314.53 -36.9 0.88 -1.17 239.09 -126.5 -193.14c-25.08,-42.05 -11.95,-45.84 -69.3,-46.92l-1.41 314.68z"/>
  <path class="fil13" d="M4557.43 13195.26c21.52,-39.34 -1.05,-181.25 8.74,-239.79 29.5,34.95 59.98,93.08 85.11,132.33 61.22,95.63 50.39,106.73 110.56,108.42l-1.45 -314.94 -36.83 1.46 -2.94 238.55c-25.99,-29.01 -62.16,-95.98 -85.11,-132.17 -61.54,-97.02 -50.29,-106.65 -109.77,-107.55l0.75 314.44 30.95 -0.75z"/>
  <path class="fil13" d="M6140.27 13033.49c9.17,75.36 2.29,122.23 -77.79,127.26 -124.99,7.85 -173.26,-162.2 -66.85,-232.41 59.68,-39.37 105.16,-3.23 144.55,14.89l21.69 -19.28c-34.37,-58.95 -143.7,-64.29 -203.71,-18.62 -45.09,34.31 -76.56,126.15 -43.25,201.55 64.79,146.64 245.89,91.21 261.82,23.51 5.68,-24.15 1.72,-106.14 2.33,-137.29l-123.73 0.86 0.06 39.21 84.88 0.32z"/>
  <path class="fil13" d="M6557.91 12987.87c-19.73,11.52 -49.21,9.08 -79.2,5.35l2.9 -73.27c20.42,-2.32 63.68,-8.21 74.55,5.38 17.39,5.72 22.51,22.49 1.74,62.54zm10.37 43.39c98.3,-130.5 4.06,-166.98 -122.97,-147.78 -2.31,50.37 -9.46,282.81 4.54,311.77l31.22 0.82 0.44 -163.73 43 -1.69c16.15,30.93 39.65,63.38 61.03,94.13 40.1,57.65 34.64,69.73 89.62,71.59 -19.72,-47.35 -80.12,-118.68 -106.88,-165.1z"/>
  <path class="fil13" d="M7030.25 12946.1c18.3,23.24 38.05,86.08 44.41,119.84l-29.84 -0.41 -21.5 0.08 -35.96 -1.05 42.9 -118.45zm-57.12 158.49l116.91 2.11c46.78,82.88 -1.22,88.23 75.02,88.87l-113.57 -313.72 -35.35 0.82c-12.16,15.5 -109.17,282.85 -115.26,313.01l38.55 0.06 33.7 -91.15z"/>
  <path class="fil13" d="M200.35 12946.05l40.08 119.29 -87.53 -0.17 47.45 -119.12zm-134.02 250.07c61.79,-1.36 29.98,9.09 71.96,-90.79l118.08 -0.79 32.76 91.38 41.69 -0.6 -117.36 -313.09 -35.79 -0.36 -111.34 314.25z"/>
  <path class="fil13" d="M5509.23 12923.35c20.08,-10.39 42.15,-6.48 73.25,-6.43 26.25,0.03 50.04,-0.07 76.69,1.6l-5.42 -37.78 -181.73 0.77 0.79 314.46 181.91 -7.14 0.52 -21.49c-13.84,-12.52 3.86,-2.55 -16.52,-8.79l-128.36 -2.17 1.42 -123.04 127.47 -1.17 0.2 -39.23 -128.58 -0.16 -1.66 -69.43z"/>
  <path class="fil14" d="M1027.54 13032.74l120.66 2.15c3.79,-8.64 5.15,13.88 5.8,-17.84 0.47,-22.98 1.03,-7.3 -5.33,-24.93l-124.61 -2.25 0.14 -66.73c27.67,1.47 119.94,6.17 145.53,-4.47l-1.97 -36.88 -185.23 1.76 0.41 311.52 177.93 1.98c10.79,-15.22 5.71,22.73 8.43,-21.96 0.97,-15.98 -1.9,-10.01 -4.81,-21.18l-141.94 0.64 5 -121.81z"/>
  <path class="fil13" d="M2212.54 13140.5c-11.53,-18.28 -4.36,-7.46 -20.65,-24.01 -43.42,9.91 -58.34,70.17 -143.28,36.21 -107.51,-42.98 -92.35,-204.3 7.36,-235.52 78.06,-24.45 107.47,32.01 136.62,42.31l19.68 -20.36c-54.22,-109.03 -277.15,-86.82 -275.48,98.87 1.39,154.68 182.68,219.02 275.75,102.5z"/>
  <path class="fil15" d="M5487.83 12023.35l0.71 -1429.73 900.99 2.03 -2.12 169.96c-77.55,-7.77 -685.64,-12.34 -720.2,3.2l723.27 0.01 2.07 -174.75c-31.06,-8.07 -858.5,-10.41 -907.03,-1.68 -14.84,74.98 -5.6,1412.37 2.31,1430.96z"/>
  <path class="fil13" d="M5143.36 12924.2c22.5,-9.87 49.43,-5.85 75.8,-3.26l-6.4 -38.82 -146.78 -0.67c-7.48,0.26 -12.87,0.53 -20.26,1.63 -16.59,2.47 -7.97,0.49 -18.12,4.96l1.46 32.21 76.42 0.77 0.28 273.27 37.21 -0.78 0.39 -269.31z"/>
  <path class="fil14" d="M616.39 12923.51l-0.69 271.25 33.3 0.52c7.85,-10.77 7.06,14.72 7.76,-20.78l-1.01 -247.22c31.15,0.76 54.2,6 77.42,-7.4l-3.87 -37.82 -183.94 -0.83c-10,10.67 -6.1,-4.68 -9.68,14.55 -2.39,12.84 -0.51,13.89 1.41,22.42l8.27 -36.97 -8.48 37.95 0.43 -0.03c0.18,0.87 0.37,1.82 0.55,2.86l78.54 1.51z"/>
  <path class="fil14" d="M7451.17 12881.9l-32.08 1.19 0.4 312.32 196.87 -1.22 0.96 -31.59c-10.8,-10.57 16.88,-8.14 -20.55,-10.36l-136.82 1.09 0.13 -251c-1.15,-34.95 0.68,-10.96 -8.93,-20.44z"/>
  <path class="fil14" d="M4196.28 13196l31.4 -1.02c10.08,-19.98 10.31,-292.79 0.01,-312.71l-32.24 -0.74 0.83 314.47z"/>
  <polygon class="fil13" points="2485.73,13195.63 2523.05,13195.72 2521.93,12881.77 2485.18,12881.96 "/>
  <path class="fil16" d="M3353.37 8309.98l1.73 639.87 -77.63 1.3 -1.46 -642.73c-8.15,47.49 -8.88,597.12 0.26,645.69l80.63 0.46c0.43,-3.18 10.88,-570.73 2.28,-628.43 -2.76,-18.56 0.02,-4.68 -5.81,-16.17z"/>
  <path class="fil17" d="M3162.44 8951.78l-432.85 1.5 -0.49 -643.37c-15.09,33.25 -6.99,618.71 -3.35,642.75 36.95,12.08 256.37,5.15 326.34,5.15l110.35 -6.03z"/>
  <path class="fil18" d="M3617.38 8455.63l-12.35 -10.59 0.59 506.73 -78.54 -2.63 2.1 -640.06c-9.22,33.39 -9.56,597.06 -1.38,644.38l80.56 1.32c13.94,-83.53 -9.19,-468.76 9.02,-499.16z"/>
  <path class="fil19" d="M3302.99 8244.99c42.22,4.5 43.49,-10.83 62.86,-35.44 17.05,-21.66 30.45,-37.22 41.54,-59.52l-54.23 0.13 -50.17 94.83z"/>
  <path class="fil20" d="M5509.23 12923.35l149.37 -0.39c2.63,-10.57 6.13,-5.69 4.75,-21.17 -2.96,-33.09 -1.53,-11.54 -9.59,-21.06l5.42 37.78c-26.65,-1.67 -50.45,-1.57 -76.69,-1.6 -31.11,-0.04 -53.18,-3.96 -73.25,6.43z"/>
  <path class="fil21" d="M2941.74 12851.38c23.04,-7.86 37.71,-28.06 43.2,-46.68 -35.4,-0.98 -35,11.89 -43.2,46.68z"/>
  <path class="fil22" d="M5143.36 12924.2l77.57 -1.03c0.84,-8.91 3.67,-13.23 2.29,-21.24 -3.32,-19.16 -0.07,-9.22 -10.46,-19.81l6.4 38.82c-26.37,-2.59 -53.3,-6.61 -75.8,3.26z"/>
 </g>
</svg>
