<?xml version="1.0" encoding="UTF-8"?>
<!DOCTYPE svg PUBLIC "-//W3C//DTD SVG 1.1//EN" "http://www.w3.org/Graphics/SVG/1.1/DTD/svg11.dtd">
<!-- Creator: CorelDRAW -->
<svg xmlns="http://www.w3.org/2000/svg" xml:space="preserve" width="378.173mm" height="216.043mm" version="1.1" style="shape-rendering:geometricPrecision; text-rendering:geometricPrecision; image-rendering:optimizeQuality; fill-rule:evenodd; clip-rule:evenodd"
viewBox="0 0 7681.53 4388.32"
 xmlns:xlink="http://www.w3.org/1999/xlink"
 xmlns:xodm="http://www.corel.com/coreldraw/odm/2003">
 <defs>
  <style type="text/css">
   <![CDATA[
    .str0 {stroke:#6B6C6F;stroke-width:4.06;stroke-miterlimit:22.9256}
    .fil3 {fill:#65C5C2}
    .fil12 {fill:#6A6B6E}
    .fil8 {fill:#6B6C6F}
    .fil6 {fill:#6B6C6F}
    .fil7 {fill:#6C6D70}
    .fil0 {fill:#79CCCF}
    .fil11 {fill:#97989B}
    .fil4 {fill:#AEDFE3}
    .fil1 {fill:#AEDFE3}
    .fil9 {fill:#AFDFE3}
    .fil10 {fill:#B6B7B8}
    .fil5 {fill:#D2ECF0}
    .fil2 {fill:#D4ECF1}
   ]]>
  </style>
 </defs>
 <g id="Capa_x0020_1">
  <metadata id="CorelCorpID_0Corel-Layer"/>
  <path class="fil0" d="M3981.73 3875.95l182.23 -3.05 -0.2 -1123.96c34.43,44.22 65.04,91.32 96.56,137.16l573.25 845.16c25.43,37.05 63.87,107.27 96.59,140.33l194.36 1.58 -0.28 -1430.85 -177.7 -0.21c-11.54,46.38 -6.55,1004.44 -3.25,1123.36 -25.17,-15.73 -530.5,-778.9 -575.17,-844.08l-191.67 -279.56 -190.43 0.32c-11.83,45.91 -3.81,1346.55 -4.31,1433.79z"/>
  <path class="fil1" d="M2717.64 3696.4c230.95,8.49 424.89,18.89 594.94,-94.87 228.95,-153.16 320.55,-456.85 165.88,-715.03 -169.14,-282.33 -464.51,-281.46 -762.99,-268.2l2.17 1078.1zm-181.86 179.13c317.19,-39.66 656.03,97.29 984.34,-209.79 122.9,-114.95 214.66,-320.44 213.99,-510.55 -1.45,-411.87 -343.59,-701.92 -717.53,-712.43 -151.65,-4.26 -326.02,-5.22 -477.34,-0.09l-3.46 1432.87z"/>
  <path class="fil0" d="M5487.83 3873.32l884.21 -0.19 -0.23 -177.63 -705.33 -0.01c0.64,-103.82 -13.59,-495.11 4.15,-565.19l627.31 0.01 -0.96 -178.74 -630.53 -1.06 0.77 -331.73c34.57,-15.54 642.65,-10.96 720.2,-3.2l2.12 -169.96 -900.99 -2.03 -0.71 1429.73z"/>
  <path class="fil2" d="M122.76 3519.96l-59.68 64.96c-12.37,14.44 -51.01,56.75 -57.01,73.14 31.44,18.82 81.09,63.27 150.59,105.57 174.9,106.45 446,169.18 635.72,84.83 121.91,-54.21 216.97,-128.55 257.84,-265.64 50.25,-168.56 -17.18,-306.3 -109.5,-387.86 -88.38,-78.09 -239.65,-111.96 -380.4,-142.99 -137.53,-30.32 -306.84,-68.07 -322.21,-206.79 -23.77,-214.65 264.86,-299.53 492.28,-192.01 86.4,40.84 144.63,91.1 164.03,100.05 22.55,-22.41 104.56,-116.46 111.7,-139.37 -186.21,-171.74 -533.67,-261.76 -780.49,-98.46 -244.85,162.01 -230.19,520.52 64.02,642.5 129.05,53.51 279.09,65.45 412.77,110.48 68.48,23.07 121.14,54.45 154.79,102.93 54.76,78.89 31.5,200.38 -61.15,272.8 -166.05,129.81 -432.57,47.44 -597.13,-66.31 -19.86,-13.72 -61.03,-50.97 -76.18,-57.85z"/>
  <path class="fil2" d="M1685.87 3869.25l183.71 4.12 2.19 -723.23c7.94,-27.01 490.52,-677.71 497.28,-707.99 -44.72,-0.3 -89.44,0.06 -134.17,-0.1 -70.41,-0.25 -73.43,-13.39 -105.79,34.52 -37.52,55.54 -77.97,110.31 -116.41,163.1 -19.79,27.18 -209.44,304.78 -240.04,323.67 -24.08,-48.94 -79.13,-114.02 -113.66,-163.65l-172.84 -242.91c-21.64,-30.45 -37.84,-50.45 -59.94,-83.25 -29.61,-43.97 -37.24,-31.76 -101.62,-31.48 -45.87,0.2 -94.13,-1.58 -139.61,0.73 23.92,42.76 63.69,93.98 92.9,135.81 34.78,49.79 67.74,92.38 101.52,142.18l251.15 350.56c7.64,10.33 47.26,64.46 50.34,72.37 12.34,31.71 5.44,663.49 4.99,725.56z"/>
  <path class="fil3" d="M6990.08 3869.79l183.46 3.46c-0.38,-60.47 -5.69,-692.86 2.96,-722.43 7.99,-27.3 488.47,-677.68 496.91,-708.95l-212.83 0.49c-33.06,35.92 -65.04,88.59 -92.47,126.41 -32.52,44.82 -63.86,86.55 -96.13,133.08l-191.31 259.46c-22.79,-26.45 -38.14,-51.53 -57.48,-77.99l-293.32 -408.84c-30.23,-45.04 -34.18,-32.57 -100.75,-32.26 -46.14,0.21 -94.99,-3.41 -139.87,2.1l397.09 561.17c134.79,186.24 103.86,103.86 103.86,378.89 0,161.78 0.53,323.65 -0.1,485.42z"/>
  <path class="fil4" d="M2016.22 4239.69l1.39 145.14 2064.97 2.18 -0.7 -139.03 1969.02 -1.89 1630.01 2.58c-17.93,-16.7 -22.52,-9.84 -76.91,-9.41 -907.95,7.11 -1844.03,0.56 -2752.67,0.56l-2121.81 1.14c-232.19,0 -483.45,9.12 -713.3,-1.27z"/>
  <path class="fil0" d="M4082.58 4387.01l2.43 1.31 3576.28 -2.3c36.17,-1.22 8.51,1.97 20.24,-13.27l-1631.33 4.58c11.35,-32.77 10.19,-97.24 0.69,-131.24l-1969.02 1.89 0.7 139.03z"/>
  <polygon class="fil5" points="4085.01,4388.32 4082.58,4387.01 2017.61,4384.83 2016.22,4239.69 -0,4241.51 0.73,4383.69 "/>
  <path class="fil3" d="M7681.53 4372.76l-0.63 -124.09 -1630.01 -2.58c9.5,34 10.66,98.47 -0.69,131.24l1631.33 -4.58z"/>
  <path class="fil6" d="M1822.87 1270.41c-346.68,55.48 -249.37,563.82 78.13,504.85 330.4,-59.5 239.58,-555.69 -78.13,-504.85zm1.79 -82.17c-175.93,16.19 -319.81,172.01 -302.63,366.46 15.61,176.71 172.67,320.93 368.49,303.18 174.21,-15.79 325.58,-173.17 301.95,-371.68 -20.45,-171.72 -172.44,-315.95 -367.81,-297.97z"/>
  <path class="fil6" d="M425.67 1274.48c-326.61,83.4 -204.69,575.2 116.86,498.22 119.28,-28.56 225.19,-150.77 191.5,-304.92 -26.54,-121.46 -156.7,-232.02 -308.36,-193.3zm18.17 -84.82c-174.07,23.56 -316.67,178.44 -291.57,380.5 21.04,169.36 183.29,313.49 381.36,286.16 170.76,-23.57 312.95,-182.33 285.88,-381.42 -22.51,-165.57 -182.72,-311.36 -375.67,-285.24z"/>
  <path class="fil6 str0" d="M3686.02 1270.06c-332.71,44.03 -267.99,556.09 71.64,506.4 126.64,-18.53 237.8,-146.04 211.29,-296.65 -21.7,-123.31 -136.93,-229.07 -282.93,-209.75zm-9.31 -80.4c-173.89,23.5 -317.28,179.55 -291.23,381.02 21.9,169.4 181.45,313.21 381.49,285.43 170.05,-23.62 312.37,-181.78 285.55,-381.25 -22.28,-165.73 -183.39,-311.2 -375.81,-285.19z"/>
  <path class="fil6" d="M994.33 1771.44c105.94,-2.53 182.48,13.7 264.68,-42.53 163.86,-112.1 130.24,-319.69 1.64,-400.57 -87.65,-55.13 -155.8,-40.82 -268.11,-43.1l1.79 486.2zm-82.36 76.41c230.31,39.41 538.23,-26.75 538.85,-318.45 0.29,-138.93 -77.92,-224.46 -154.13,-273.13 -42.98,-27.45 -102.77,-46.79 -165.41,-48.96 -46.94,-1.63 -179.5,-5.18 -219.01,2.99l-0.3 637.55z"/>
  <path class="fil7" d="M2298.44 1850.77l79.55 -0.35 1.38 -501.16c3.21,2.63 315.76,449.34 342.44,501.45l87.9 -0.18 1.8 -643.94 -81.83 0.61 -0.55 501.62c-31.9,-30.62 -328.86,-479.56 -340.66,-502.16l-86.38 0.34c-11.05,39.3 -9.75,576.26 -3.65,643.77z"/>
  <path class="fil8" d="M3617.38 305.6c17.12,36.57 58.2,88.78 82.96,124.73l254.95 372.24 82.82 0.65c18.62,-119.84 -14.38,-541.71 6.55,-642.79l-86.57 -1.32 0.45 501.42 -338.53 -500.47 -90.83 -1 -2.1 640.06 78.54 2.63 -0.59 -506.73 12.35 10.59z"/>
  <path class="fil7" d="M4897.72 1270.21c314.35,-47.68 409.45,442.36 77.41,505.25 -324.52,61.47 -428.37,-452.01 -77.41,-505.25zm-3.83 -81.38c-175.3,19.87 -318.51,176.33 -297.38,372.77 18.59,172.81 176.82,318.23 375.69,295.48 172.81,-19.77 319.55,-178.43 293.4,-377.27 -22.01,-167.34 -177.29,-313.02 -371.71,-290.99z"/>
  <path class="fil7" d="M5942.73 1439.51l-272.09 -2.89 -0.7 78.16 187.42 2.56c2.45,55.1 15.22,164.71 -14.59,193.14 -128.65,122.71 -350.13,78.48 -416.4,-96.68 -66.33,-175.33 70.48,-360.2 262.52,-345.17 52.68,4.12 131.21,31.64 147.33,70.12 24.53,-11.37 53.04,-30.32 65.37,-52.85 -30.45,-48.61 -128.25,-88.78 -193.84,-96.58 -90.57,-10.78 -174.8,17.47 -234.96,58.45 -180.16,122.71 -212.83,435.95 34.13,572.31 69.8,38.54 164.66,52.06 250.36,27.07 39.3,-11.46 67.23,-27.16 96.77,-46.16 18.21,-11.71 68.78,-52.19 78.63,-71.78 23.79,-47.33 -10.59,-225.49 10.05,-289.69z"/>
  <path class="fil7" d="M5274.83 535.78c10.42,-42.15 78.63,-224.84 99.87,-252.26l94.81 252.85 -194.67 -0.6zm-360.02 606.69c41.02,2.36 41.44,-9.23 60.38,-33.69 19.29,-24.9 27.32,-33.97 44.7,-62.71l-62.29 1.28 -42.79 95.12zm168.05 -341.13l83.88 1.96 73.67 -184.61 265.53 -1.95c8.63,40.01 52.9,152.13 71,186.79l82.58 -0.16c-2.1,-31.88 -187.54,-491.16 -229.48,-603.9 -2,-5.37 -5.71,-15.73 -8.03,-20.42 -6.98,-14.13 -4.11,-9.4 -11.55,-18.62l-78.86 -0.48 -248.74 641.4z"/>
  <path class="fil7" d="M7244.66 1329.73c17.45,48.19 89.83,218.11 92.21,253.23l-193.01 -1 100.81 -252.23zm-292 518.96l86.74 2.14 70.92 -186.21 265.19 -1.23 69.01 187.65 86.18 -0.77c-7.57,-39.38 -42.7,-116.68 -59.46,-159.53 -30.75,-78.63 -179.44,-452.12 -180.63,-480.71l-88.06 -3.13 -249.88 641.79z"/>
  <path class="fil7" d="M6898.97 1728.42c-17.09,-19.15 -43.28,-40.15 -62.03,-47.18 -43.96,30.45 -121.11,139.82 -287.61,85.03 -91.34,-30.05 -171.75,-117.03 -174.75,-236.77 -5.07,-202.7 250.14,-381.59 462.36,-161.89 21.54,-12.51 45.98,-26.23 61.41,-45.91 -180.56,-249.2 -596.23,-133.67 -603.74,193.35 -3.65,158.82 100.19,278.55 212.94,322.29 170.93,66.31 325.07,-18.28 391.43,-108.93z"/>
  <path class="fil8" d="M5028.75 676.99c-9.81,-6.69 -14.2,-10.96 -27.28,-20.88 -0.71,-0.54 -15.86,-11.46 -16.67,-11.96 -16.13,-9.98 0.56,-2.77 -18.78,-9.77 -25.59,20.24 -29.5,32.5 -51.04,48.82 -14.05,10.65 -43.99,26.56 -65.73,34.55 -161.7,59.44 -344.64,-59.11 -344.78,-241.17 -0.17,-231.22 291.25,-356.21 461.55,-156.46 22.11,-11.26 43.57,-25.31 62.01,-44.08 -18.83,-43.29 -85.36,-91.44 -147.97,-114.81 -70.34,-26.26 -158.26,-28.01 -231.09,-1.89 -116.32,41.72 -225.07,153.57 -224.95,317.24 0.19,241.39 240.38,393.43 451.14,317.68 68.23,-24.52 130.69,-70.76 153.58,-117.27z"/>
  <path class="fil8" d="M2621.48 677.12c-16.93,-15.64 -45.01,-35.18 -56.84,-43.01l-26.42 23.82c-162.88,160.37 -440.69,48.02 -438.68,-181.37 1.08,-123.22 76.92,-207.27 167.12,-240.17 79.55,-29.01 173.6,-17.55 240.11,33.05l53.37 47.93c0.92,0.71 2.89,2.22 4.49,3.09 14.69,-8.37 14.76,-8.54 30.39,-20.83 19.93,-15.66 19.25,-12.91 29.62,-34.71 -25.84,-11.78 -157.15,-188.11 -383.76,-104.87 -301.98,110.92 -287.11,532.83 -0.2,633.28 186.59,65.33 360.55,-54.31 380.79,-116.21z"/>
  <path class="fil8" d="M4155.21 1850.77l431.92 -0.36 2.74 -79.87 -352.46 0.42 -1.35 -563.93 -77.32 -0.04c-11.09,40.19 -9.72,576.08 -3.53,643.78z"/>
  <polygon class="fil8" points="2924.75,1285.13 3093.34,1287.48 3094.58,1850.26 3175.23,1850.6 3177.01,1289.2 3347.25,1287.11 3346.8,1207.02 2925.36,1207.28 "/>
  <polygon class="fil8" points="3162.44,801.75 3161.06,723.59 2811.34,723.65 2808.24,160.16 2729.1,159.88 2729.59,803.25 "/>
  <polygon class="fil8" points="4221.07,802.54 4304.18,804.32 4303.31,158.96 4220.82,159.92 "/>
  <polygon class="fil8" points="6091.46,1854.4 6171.92,1851.29 6173.7,1206.67 6091.94,1207.33 "/>
  <path class="fil8" d="M3353.37 159.94l-77.36 -1.56c-8.15,47.49 -8.88,597.12 0.26,645.69l80.63 0.46c0.43,-3.18 10.88,-570.73 2.28,-628.43 -2.76,-18.56 0.02,-4.68 -5.81,-16.17z"/>
  <path class="fil9" d="M5487.83 3873.32l0.71 -1429.73 900.99 2.03 -2.12 169.96c-77.55,-7.77 -685.64,-12.34 -720.2,3.2l723.27 0.01 2.07 -174.75c-31.06,-8.07 -858.5,-10.41 -907.03,-1.68 -14.84,74.98 -5.6,1412.37 2.31,1430.96z"/>
  <path class="fil10" d="M3162.44 801.75l-432.85 1.5 -0.49 -643.37c-15.09,33.25 -6.99,618.71 -3.35,642.75 36.95,12.08 256.37,5.15 326.34,5.15l110.35 -6.03z"/>
  <path class="fil11" d="M3617.38 305.6l-12.35 -10.59 0.59 506.73 -78.54 -2.63 2.1 -640.06c-9.22,33.39 -9.56,597.06 -1.38,644.38l80.56 1.32c13.94,-83.53 -9.19,-468.76 9.02,-499.16z"/>
  <path class="fil12" d="M3302.99 94.96c42.22,4.5 43.49,-10.83 62.86,-35.44 17.05,-21.66 30.45,-37.22 41.54,-59.52l-54.23 0.13 -50.17 94.83z"/>
 </g>
</svg>
