<?xml version="1.0" encoding="UTF-8"?>
<!DOCTYPE svg PUBLIC "-//W3C//DTD SVG 1.1//EN" "http://www.w3.org/Graphics/SVG/1.1/DTD/svg11.dtd">
<!-- Creator: CorelDRAW -->
<svg xmlns="http://www.w3.org/2000/svg" xml:space="preserve" width="378.173mm" height="248.692mm" version="1.1" style="shape-rendering:geometricPrecision; text-rendering:geometricPrecision; image-rendering:optimizeQuality; fill-rule:evenodd; clip-rule:evenodd"
viewBox="0 0 60836.65 40007.09"
 xmlns:xlink="http://www.w3.org/1999/xlink"
 xmlns:xodm="http://www.corel.com/coreldraw/odm/2003">
 <defs>
  <style type="text/css">
   <![CDATA[
    .str0 {stroke:#6B6C6F;stroke-width:32.17;stroke-miterlimit:22.9256}
    .fil18 {fill:#2C2C2E}
    .fil11 {fill:#353535}
    .fil10 {fill:#373739}
    .fil9 {fill:#373739}
    .fil3 {fill:#65C5C2}
    .fil16 {fill:#6A6B6E}
    .fil8 {fill:#6B6C6F}
    .fil6 {fill:#6B6C6F}
    .fil7 {fill:#6C6D70}
    .fil0 {fill:#79CCCF}
    .fil19 {fill:#8A8A8C}
    .fil15 {fill:#97989B}
    .fil13 {fill:#999A9C}
    .fil17 {fill:#9B9B9D}
    .fil4 {fill:#AEDFE3}
    .fil1 {fill:#AEDFE3}
    .fil12 {fill:#AFDFE3}
    .fil14 {fill:#B6B7B8}
    .fil5 {fill:#D2ECF0}
    .fil2 {fill:#D4ECF1}
   ]]>
  </style>
 </defs>
 <g id="Capa_x0020_1">
  <metadata id="CorelCorpID_0Corel-Layer"/>
  <path class="fil0" d="M31534.77 30696.99l1443.26 -24.13 -1.58 -8901.59c272.66,350.21 515.12,723.21 764.78,1086.26l4540.08 6693.53c201.43,293.44 505.87,849.56 765,1111.39l1539.27 12.52 -2.24 -11332.16 -1407.36 -1.62c-91.39,367.3 -51.86,7955.03 -25.72,8896.87 -199.38,-124.58 -4201.49,-6168.77 -4555.26,-6685.01l-1517.97 -2214.09 -1508.14 2.57c-93.71,363.58 -30.2,10664.47 -34.12,11355.45z"/>
  <path class="fil1" d="M21523.36 29275c1829.08,67.21 3365.03,149.61 4711.84,-751.36 1813.26,-1213.03 2538.69,-3618.21 1313.75,-5662.9 -1339.53,-2235.98 -3678.89,-2229.16 -6042.78,-2124.13l17.2 8538.39zm-1440.29 1418.68c2512.1,-314.13 5195.7,770.49 7795.81,-1661.51 973.31,-910.36 1700.08,-2537.81 1694.77,-4043.5 -11.49,-3261.98 -2721.17,-5559.12 -5682.75,-5642.36 -1201.04,-33.77 -2582.06,-41.33 -3780.45,-0.72l-27.38 11348.1z"/>
  <path class="fil0" d="M43462.83 30676.15l7002.84 -1.5 -1.79 -1406.81 -5586.12 -0.08c5.04,-822.21 -107.64,-3921.18 32.83,-4476.24l4968.17 0.1 -7.59 -1415.59 -4993.75 -8.41 6.06 -2627.23c273.75,-123.1 5089.67,-86.84 5703.89,-25.34l16.76 -1346.05 -7135.68 -16.09 -5.63 11323.25z"/>
  <path class="fil2" d="M972.23 27877.6l-472.65 514.46c-97.97,114.36 -404.03,449.46 -451.48,579.26 248.99,149.03 642.19,501.11 1192.66,836.12 1385.2,843.06 3532.23,1339.92 5034.82,671.83 965.49,-429.3 1718.38,-1018.13 2042.05,-2103.83 397.98,-1334.93 -136.1,-2425.84 -867.2,-3071.78 -699.96,-618.43 -1897.99,-886.72 -3012.7,-1132.48 -1089.25,-240.15 -2430.17,-539.09 -2551.83,-1637.74 -188.27,-1699.99 2097.63,-2372.21 3898.8,-1520.71 684.26,323.48 1145.44,721.52 1299.09,792.4 178.63,-177.47 828.06,-922.32 884.64,-1103.76 -1474.76,-1360.17 -4226.62,-2073.1 -6181.37,-779.75 -1939.21,1283.07 -1823.09,4122.43 507,5088.51 1022.02,423.76 2210.39,518.39 3269.04,874.97 542.36,182.68 959.4,431.23 1225.93,815.23 433.69,624.84 249.46,1587 -484.27,2160.57 -1315.13,1028.04 -3425.89,375.68 -4729.21,-525.18 -157.27,-108.7 -483.38,-403.69 -603.31,-458.13z"/>
  <path class="fil2" d="M13351.83 30643.92l1454.93 32.62 17.33 -5727.89c62.88,-213.88 3884.87,-5367.35 3938.36,-5607.16 -354.17,-2.41 -708.39,0.48 -1062.58,-0.77 -557.66,-1.99 -581.55,-106.01 -837.84,273.38 -297.14,439.85 -617.55,873.65 -921.93,1291.72 -156.7,215.24 -1658.76,2413.81 -1901.11,2563.42 -190.68,-387.58 -626.7,-903.03 -900.18,-1296.1l-1368.88 -1923.81c-171.36,-241.16 -299.7,-399.55 -474.7,-659.36 -234.53,-348.22 -294.94,-251.57 -804.78,-249.32 -363.26,1.59 -745.49,-12.5 -1105.68,5.76 189.44,338.68 504.39,744.33 735.77,1075.56 275.44,394.32 536.47,731.61 804,1126.07l1989.09 2776.36c60.54,81.79 374.28,510.51 398.67,573.18 97.74,251.17 43.06,5254.77 39.54,5746.33z"/>
  <path class="fil3" d="M55360.43 30648.15l1452.98 27.36c-3.02,-478.88 -45.08,-5487.33 23.47,-5721.52 63.29,-216.24 3868.6,-5367.14 3935.43,-5614.82l-1685.56 3.88c-261.8,284.48 -515.09,701.62 -732.38,1001.11 -257.55,354.98 -505.73,685.48 -761.33,1054l-1515.19 2054.89c-180.46,-209.47 -302.03,-408.08 -455.23,-617.66l-2323.08 -3237.93c-239.39,-356.68 -270.71,-257.97 -797.96,-255.53 -365.45,1.69 -752.34,-27.01 -1107.77,16.62l3144.87 4444.37c1067.49,1474.97 822.54,822.56 822.54,3000.74 0,1281.28 4.23,2563.27 -0.79,3844.47z"/>
  <path class="fil4" d="M15968.16 33577.76l11.02 1149.48 16354.3 17.26 -5.53 -1101.09 15594.33 -14.96 12909.42 20.43c-142.03,-132.27 -178.37,-77.93 -609.13,-74.56 -7190.86,56.34 -14604.48,4.47 -21800.75,4.47l-16804.44 9.02c-1838.92,0 -3828.87,72.26 -5649.21,-10.05z"/>
  <path class="fil0" d="M32333.48 34744.5l19.24 10.38 28323.64 -18.18c286.49,-9.65 67.44,15.62 160.29,-105.08l-12919.86 36.26c89.89,-259.55 80.74,-770.13 5.49,-1039.43l-15594.33 14.96 5.53 1101.09z"/>
  <polygon class="fil5" points="32352.72,34754.88 32333.48,34744.5 15979.18,34727.24 15968.16,33577.76 -0,33592.13 5.78,34718.18 "/>
  <path class="fil3" d="M60836.65 34631.62l-4.95 -982.74 -12909.42 -20.43c75.26,269.3 84.41,779.88 -5.49,1039.43l12919.86 -36.26z"/>
  <path class="fil6" d="M14436.89 10061.44c-2745.67,439.37 -1974.95,4465.37 618.77,3998.31 2616.7,-471.2 1897.41,-4400.97 -618.77,-3998.31zm14.14 -650.74c-1393.34,128.21 -2532.85,1362.3 -2396.8,2902.32 123.63,1399.51 1367.51,2541.73 2918.39,2401.16 1379.73,-125.06 2578.59,-1371.45 2391.38,-2943.62 -161.95,-1360.01 -1365.67,-2502.27 -2912.97,-2359.87z"/>
  <path class="fil6" d="M3371.21 10093.7c-2586.73,660.48 -1621.14,4555.5 925.52,3945.82 944.68,-226.17 1783.45,-1194.07 1516.64,-2414.92 -210.23,-961.91 -1241.05,-1837.59 -2442.15,-1530.9zm143.87 -671.73c-1378.59,186.61 -2508,1413.24 -2309.18,3013.5 166.65,1341.32 1451.6,2482.82 3020.32,2266.34 1352.42,-186.64 2478.49,-1444.05 2264.1,-3020.79 -178.29,-1311.3 -1447.09,-2465.91 -2975.24,-2259.05z"/>
  <path class="fil6 str0" d="M29192.76 10058.73c-2635,348.75 -2122.41,4404.19 567.34,4010.59 1002.98,-146.78 1883.31,-1156.64 1673.42,-2349.4 -171.84,-976.59 -1084.46,-1814.23 -2240.76,-1661.19zm-73.74 -636.76c-1377.18,186.14 -2512.79,1421.98 -2306.48,3017.6 173.48,1341.64 1437.02,2480.57 3021.35,2260.55 1346.76,-187.04 2473.89,-1439.64 2261.51,-3019.45 -176.47,-1312.56 -1452.43,-2464.67 -2976.39,-2258.7z"/>
  <path class="fil6" d="M7874.98 14029.53c839,-20.08 1445.19,108.52 2096.2,-336.83 1297.77,-887.83 1031.5,-2531.9 12.97,-3172.47 -694.2,-436.62 -1233.91,-323.28 -2123.37,-341.33l14.2 3850.64zm-652.3 605.18c1823.99,312.15 4262.7,-211.85 4267.61,-2522.06 2.33,-1100.32 -617.15,-1777.68 -1220.65,-2163.14 -340.37,-217.38 -813.91,-370.55 -1310.01,-387.78 -371.72,-12.9 -1421.64,-40.99 -1734.57,23.65l-2.38 5049.33z"/>
  <path class="fil7" d="M18203.29 14657.87l630.06 -2.73 10.89 -3969.1c25.39,20.86 2500.74,3558.67 2712.08,3971.45l696.17 -1.46 14.25 -5099.9 -648.08 4.81 -4.38 3972.74c-252.61,-242.53 -2604.5,-3798.05 -2697.98,-3977.03l-684.12 2.65c-87.51,311.27 -77.23,4563.93 -28.89,5098.59z"/>
  <path class="fil8" d="M28649.17 2420.29c135.61,289.61 460.93,703.15 657.04,987.87l2019.15 2948.07 655.92 5.15c147.49,-949.13 -113.88,-4290.26 51.85,-5090.8l-685.63 -10.47 3.56 3971.14 -2681.11 -3963.61 -719.36 -7.95 -16.63 5069.15 622.04 20.83 -4.65 -4013.23 97.84 83.85z"/>
  <path class="fil7" d="M38789.28 10059.9c2489.61,-377.64 3242.8,3503.4 613.04,4001.5 -2570.17,486.83 -3392.62,-3579.89 -613.04,-4001.5zm-30.32 -644.54c-1388.39,157.38 -2522.54,1396.5 -2355.2,2952.29 147.21,1368.65 1400.37,2520.37 2975.42,2340.18 1368.6,-156.57 2530.82,-1413.15 2323.7,-2987.89 -174.3,-1325.28 -1404.12,-2479.1 -2943.92,-2304.58z"/>
  <path class="fil7" d="M47065.58 11400.74l-2154.92 -22.88 -5.57 619 1484.33 20.24c19.37,436.36 120.52,1304.5 -115.52,1529.63 -1018.87,971.82 -2773.01,621.55 -3297.82,-765.73 -525.29,-1388.57 558.2,-2852.76 2079.1,-2733.71 417.22,32.66 1039.14,250.56 1166.81,555.34 194.27,-90.09 420.1,-240.11 517.74,-418.55 -241.14,-384.95 -1015.73,-703.13 -1535.2,-764.92 -717.29,-85.34 -1384.38,138.4 -1860.87,462.92 -1426.84,971.82 -1685.56,3452.64 270.34,4532.61 552.78,305.23 1304.06,412.28 1982.82,214.38 311.28,-90.76 532.46,-215.1 766.37,-365.55 144.22,-92.74 544.74,-413.31 622.74,-568.5 188.38,-374.81 -83.85,-1785.85 79.63,-2294.28z"/>
  <path class="fil7" d="M41775.89 4243.27c82.53,-333.85 622.78,-1780.67 790.93,-1997.83l750.85 2002.54 -1541.78 -4.71zm-2851.31 4804.93c324.86,18.69 328.22,-73.12 478.23,-266.79 152.75,-197.19 216.35,-269.07 354.01,-496.64l-493.32 10.12 -338.92 753.31zm1330.89 -2701.73l664.28 15.51 583.49 -1462.08 2102.94 -15.44c68.39,316.88 418.95,1204.84 562.27,1479.31l654.05 -1.25c-16.6,-252.47 -1485.33,-3889.95 -1817.41,-4782.8 -15.83,-42.53 -45.24,-124.59 -63.59,-161.74 -55.29,-111.93 -32.51,-74.47 -91.49,-147.5l-624.58 -3.83 -1969.97 5079.83z"/>
  <path class="fil7" d="M57376.72 10531.27c138.22,381.7 711.42,1727.41 730.27,2005.55l-1528.64 -7.93 798.37 -1997.62zm-2312.6 4110.12l686.96 16.97 561.66 -1474.76 2100.26 -9.75 546.52 1486.18 682.52 -6.11c-59.99,-311.85 -338.15,-924.1 -470.9,-1263.47 -243.57,-622.74 -1421.16,-3580.71 -1430.6,-3807.14l-697.44 -24.79 -1978.99 5082.87z"/>
  <path class="fil7" d="M54638.86 13688.82c-135.32,-151.67 -342.73,-318.01 -491.25,-373.64 -348.12,241.18 -959.2,1107.32 -2277.82,673.43 -723.4,-238.02 -1360.22,-926.87 -1383.97,-1875.15 -40.19,-1605.34 1981.08,-3022.14 3661.79,-1282.15 170.62,-99.1 364.18,-207.76 486.33,-363.63 -1430.02,-1973.64 -4722.05,-1058.67 -4781.57,1531.32 -28.89,1257.84 793.46,2206.04 1686.47,2552.49 1353.72,525.19 2574.53,-144.8 3100.03,-862.68z"/>
  <path class="fil8" d="M39826.97 5361.67c-77.68,-52.96 -112.43,-86.77 -216.05,-165.36 -5.66,-4.3 -125.59,-90.75 -131.99,-94.7 -127.71,-79.05 4.46,-21.94 -148.76,-77.38 -202.66,160.27 -233.6,257.36 -404.23,386.67 -111.27,84.33 -348.36,210.35 -520.54,273.66 -1280.61,470.77 -2729.53,-468.15 -2730.63,-1910.04 -1.38,-1831.2 2306.62,-2821.15 3655.4,-1239.12 175.14,-89.2 345.08,-200.46 491.14,-349.14 -149.09,-342.88 -676.04,-724.22 -1171.91,-909.32 -557.04,-207.94 -1253.39,-221.82 -1830.22,-14.96 -921.24,330.38 -1782.55,1216.26 -1781.54,2512.49 1.5,1911.8 1903.75,3115.93 3572.99,2515.98 540.39,-194.22 1035.07,-560.37 1216.34,-928.77z"/>
  <path class="fil8" d="M20761.77 5362.69c-134.09,-123.85 -356.47,-278.66 -450.15,-340.64l-209.23 188.64c-1290.02,1270.07 -3490.17,380.33 -3474.28,-1436.43 8.53,-975.9 609.18,-1641.53 1323.59,-1902.08 630.03,-229.77 1374.86,-138.98 1901.66,261.74l422.67 379.59c7.26,5.63 22.92,17.62 35.58,24.45 116.37,-66.33 116.89,-67.65 240.71,-164.97 157.83,-124.06 152.49,-102.25 234.55,-274.86 -204.63,-93.3 -1244.57,-1489.79 -3039.3,-830.56 -2391.66,878.5 -2273.9,4219.93 -1.59,5015.53 1477.75,517.41 2855.52,-430.12 3015.78,-920.4z"/>
  <path class="fil8" d="M32908.65 14657.81l3420.73 -2.82 21.69 -632.57 -2791.42 3.35 -10.73 -4466.27 -612.34 -0.34c-87.84,318.31 -77.01,4562.5 -27.93,5098.65z"/>
  <polygon class="fil8" points="23163.61,10178.04 24498.85,10196.64 24508.67,14653.84 25147.39,14656.49 25161.49,10210.3 26509.79,10193.76 26506.18,9559.47 23168.47,9561.46 "/>
  <polygon class="fil8" points="25046.09,6349.75 25035.17,5730.72 22265.41,5731.22 22240.84,1268.41 21614.09,1266.26 21617.97,6361.66 "/>
  <polygon class="fil8" points="33430.27,6356.03 34088.51,6370.07 34081.6,1258.91 33428.31,1266.58 "/>
  <polygon class="fil8" points="48243.47,14686.57 48880.77,14661.99 48894.81,9556.68 48247.3,9561.86 "/>
  <polygon class="fil8" points="26558.19,1266.72 25945.5,1254.38 25957.08,6344.69 26571.93,6334.41 "/>
  <path class="fil9" d="M22424.55 38828.79c117.29,1217.27 2011.7,1038.14 1816.61,-282.97 -178.92,-1211.69 -1944.24,-1041.59 -1816.61,282.97zm581.13 -1366.82c-1613.08,525.18 -825.67,3015.62 734.36,2466.56 532.8,-187.53 970.22,-871.43 766.26,-1602.89 -161.16,-577.91 -723.34,-1116.71 -1500.61,-863.66z"/>
  <path class="fil10" d="M26925.01 38054.87c147.05,114.86 546.49,824.94 680.71,1029.33 142.06,216.32 215.9,334.27 350.79,557.93 175.77,291.4 149.11,322.95 528.36,315.43 12.6,-355.59 77.02,-2293.57 -54.89,-2481.78l-238.86 -1.37 -5.32 1909.69c-179.02,-208.13 -1143,-1715.34 -1200.53,-1912.41l-352.9 14.82c-18.69,393.92 -72.28,2252.5 37.64,2471.4l256.88 5.78 -1.88 -1908.82z"/>
  <path class="fil10" d="M11371.92 39964.06l253.64 -6.03c127.17,-243.06 47.87,-1512.08 42.76,-1892.88 72.5,61.53 32.74,17.9 100.7,100.14l597.12 944.45c442.2,686.98 414.05,844.52 863.16,853.85l5.98 -2491.06 -292.25 6.98 -9.28 1893.59 -1001.9 -1529.65c-198.59,-333.07 -94.67,-363.07 -548.81,-371.58l-11.13 2492.18z"/>
  <path class="fil10" d="M36094.17 39957.47c170.44,-311.54 -8.35,-1435.51 69.25,-1899.1 233.62,276.78 475.03,737.22 674.05,1048.07 484.88,757.41 399.05,845.31 875.63,858.68l-11.49 -2494.31 -291.71 11.55 -23.29 1889.31c-205.85,-229.72 -492.31,-760.18 -674.09,-1046.77 -487.39,-768.4 -398.27,-844.62 -869.39,-851.79l5.92 2490.32 245.12 -5.95z"/>
  <path class="fil10" d="M48630.07 38676.26c72.63,596.81 18.16,968.05 -616.05,1007.88 -989.88,62.14 -1372.22,-1284.63 -529.41,-1840.63 472.62,-311.78 832.84,-25.56 1144.83,117.9l171.79 -152.7c-272.18,-466.89 -1138.09,-509.15 -1613.33,-147.5 -357.08,271.73 -606.38,999.1 -342.56,1596.28 513.11,1161.39 1947.4,722.37 2073.58,186.21 45.01,-191.29 13.66,-840.61 18.42,-1087.31l-979.94 6.79 0.45 310.54 672.21 2.53z"/>
  <path class="fil10" d="M51937.74 38314.98c-156.29,91.26 -389.76,71.94 -627.22,42.37l22.97 -580.27c161.72,-18.39 504.34,-64.99 590.44,42.58 137.75,45.28 178.24,178.1 13.8,495.32zm82.11 343.63c778.51,-1033.53 32.16,-1322.48 -973.91,-1170.41 -18.27,398.89 -74.92,2239.81 35.92,2469.2l247.24 6.48 3.51 -1296.76 340.56 -13.42c127.91,244.97 314,502 483.35,745.47 317.56,456.55 274.35,552.23 709.81,566.97 -156.2,-374.99 -634.55,-939.9 -846.48,-1307.54z"/>
  <path class="fil10" d="M55678.63 37984.15c144.94,184.02 301.39,681.7 351.71,949.09l-236.35 -3.22 -170.31 0.6 -284.84 -8.35 339.79 -938.11zm-452.37 1255.21l925.94 16.68c370.47,656.4 -9.68,698.77 594.16,703.86l-899.49 -2484.62 -279.96 6.47c-96.33,122.78 -864.61,2240.12 -912.87,2479.02l305.33 0.51 266.9 -721.92z"/>
  <path class="fil10" d="M1586.74 37983.73l317.41 944.74 -693.19 -1.37 375.78 -943.37zm-1061.45 1980.52c489.4,-10.75 237.44,71.96 569.91,-719.04l935.15 -6.27 259.47 723.72 330.17 -4.75 -929.48 -2479.62 -283.44 -2.88 -881.79 2488.84z"/>
  <path class="fil10" d="M43632.32 37803.99c159,-82.3 333.81,-51.29 580.16,-50.96 207.86,0.26 396.32,-0.53 607.38,12.71l-42.9 -299.23 -1439.24 6.06 6.29 2490.46 1440.7 -56.53 4.12 -170.17c-109.58,-99.16 30.58,-20.17 -130.87,-69.59l-1016.55 -17.18 11.24 -974.44 1009.54 -9.25 1.56 -310.7 -1018.32 -1.3 -13.11 -549.87z"/>
  <path class="fil11" d="M8137.95 38670.31l955.58 17.02c30,-68.43 40.76,109.92 45.91,-141.31 3.73,-181.98 8.14,-57.83 -42.21,-197.42l-986.89 -17.86 1.11 -528.46c219.17,11.63 949.87,48.84 1152.55,-35.38l-15.62 -292.06 -1466.96 13.92 3.23 2467.2 1409.21 15.7c85.44,-120.57 45.25,179.98 66.73,-173.93 7.67,-126.52 -15.07,-79.31 -38.11,-167.72l-1124.18 5.04 39.64 -964.74z"/>
  <path class="fil10" d="M17523 39523.79c-91.34,-144.75 -34.52,-59.07 -163.51,-190.18 -343.89,78.47 -462.05,555.71 -1134.79,286.75 -851.47,-340.43 -731.36,-1618.02 58.25,-1865.32 618.19,-193.62 851.13,253.55 1082.01,335.12l155.9 -161.22c-429.39,-863.53 -2194.98,-687.61 -2181.74,783.05 11.04,1225.04 1446.77,1734.63 2183.88,811.8z"/>
  <path class="fil12" d="M43462.83 30676.15l5.63 -11323.25 7135.68 16.09 -16.76 1346.05c-614.22,-61.5 -5430.14,-97.76 -5703.89,25.34l5728.23 0.05 16.38 -1384c-245.95,-63.9 -6799.21,-82.45 -7183.54,-13.29 -117.5,593.85 -44.35,11185.77 18.27,11333.01z"/>
  <path class="fil10" d="M40734.66 37810.69c178.16,-78.2 391.46,-46.36 600.32,-25.85l-50.69 -307.44 -1162.45 -5.28c-59.23,2.06 -101.91,4.2 -160.47,12.92 -131.4,19.56 -63.11,3.88 -143.51,39.25l11.6 255.09 605.21 6.13 2.24 2164.28 294.7 -6.19 3.06 -2132.91z"/>
  <path class="fil11" d="M4881.72 37805.25l-5.49 2148.29 263.75 4.09c62.19,-85.31 55.92,116.55 61.42,-164.57l-7.98 -1957.98c246.71,6.05 429.22,47.52 613.16,-58.6l-30.61 -299.52 -1456.81 -6.58c-79.18,84.52 -48.31,-37.03 -76.65,115.2 -18.93,101.69 -4.07,110.02 11.2,177.57l65.46 -292.77 -67.2 300.54 3.38 -0.27c1.46,6.92 2.93,14.43 4.34,22.68l622.04 11.94z"/>
  <path class="fil11" d="M59012.19 37475.71l-254.08 9.44 3.2 2473.54 1559.19 -9.68 7.64 -250.15c-85.53,-83.73 133.68,-64.43 -162.74,-82.04l-1083.57 8.67 1.05 -1987.86c-9.09,-276.81 5.42,-86.77 -70.69,-161.92z"/>
  <path class="fil11" d="M33233.96 39963.32l248.71 -8.11c79.81,-158.25 81.69,-2318.89 0.05,-2476.63l-255.33 -5.84 6.58 2490.58z"/>
  <polygon class="fil10" points="19686.66,39960.38 19982.18,39961.15 19973.34,37474.71 19682.3,37476.22 "/>
  <path class="fil13" d="M26558.19 1266.72l13.74 5067.68 -614.85 10.28 -11.58 -5090.3c-64.57,376.15 -70.36,4729.11 2.04,5113.8l638.57 3.65c3.43,-25.18 86.15,-4520.11 18.05,-4977.05 -21.89,-146.97 0.18,-37.1 -45.98,-128.07z"/>
  <path class="fil14" d="M25046.09 6349.75l-3428.13 11.9 -3.88 -5095.4c-119.48,263.36 -55.39,4900.1 -26.56,5090.53 292.62,95.64 2030.44,40.76 2584.57,40.76l873.99 -47.79z"/>
  <path class="fil15" d="M28649.17 2420.29l-97.84 -83.85 4.65 4013.23 -622.04 -20.83 16.63 -5069.15c-73.02,264.45 -75.72,4728.63 -10.92,5103.41l638.04 10.49c110.42,-661.51 -72.75,-3712.51 71.47,-3953.3z"/>
  <path class="fil16" d="M26159.2 752.07c334.35,35.65 344.47,-85.79 497.83,-280.69 135,-171.57 241.19,-294.81 329,-471.38l-429.52 1.01 -397.3 751.05z"/>
  <path class="fil17" d="M43632.32 37803.99l1182.97 -3.07c20.83,-83.7 48.58,-45.03 37.61,-167.66 -23.44,-262.11 -12.13,-91.41 -75.95,-166.76l42.9 299.23c-211.06,-13.24 -399.52,-12.45 -607.38,-12.71 -246.36,-0.32 -421.16,-31.34 -580.16,50.96z"/>
  <path class="fil18" d="M23298.14 37234.03c182.51,-62.26 298.67,-222.24 342.15,-369.68 -280.33,-7.79 -277.18,94.17 -342.15,369.68z"/>
  <path class="fil19" d="M40734.66 37810.69l614.35 -8.17c6.63,-70.54 29.1,-104.81 18.11,-168.19 -26.27,-151.75 -0.56,-73.02 -82.83,-156.93l50.69 307.44c-208.86,-20.51 -422.16,-52.35 -600.32,25.85z"/>
 </g>
</svg>
