<?xml version="1.0" encoding="UTF-8"?>
<!DOCTYPE svg PUBLIC "-//W3C//DTD SVG 1.1//EN" "http://www.w3.org/Graphics/SVG/1.1/DTD/svg11.dtd">
<!-- Creator: CorelDRAW -->
<svg xmlns="http://www.w3.org/2000/svg" xml:space="preserve" width="369.011mm" height="368.948mm" version="1.1" style="shape-rendering:geometricPrecision; text-rendering:geometricPrecision; image-rendering:optimizeQuality; fill-rule:evenodd; clip-rule:evenodd"
viewBox="0 0 24789.9 24785.65"
 xmlns:xlink="http://www.w3.org/1999/xlink"
 xmlns:xodm="http://www.corel.com/coreldraw/odm/2003">
 <defs>
  <style type="text/css">
   <![CDATA[
    .fil0 {fill:#67C6C3}
    .fil1 {fill:#D4EDF1}
    .fil2 {fill:#EFF9FD}
   ]]>
  </style>
 </defs>
 <g id="Capa_x0020_1">
  <metadata id="CorelCorpID_0Corel-Layer"/>
  <g id="_2691663448576">
   <path class="fil0" d="M12009.84 18446.17c-79.31,165.88 -405.76,237.91 -625.08,131.23 -233.98,-113.79 -165.25,-392.7 -165.25,-676.1l0 -8362.47c0,-393.04 -40.59,-3186.75 34.33,-3318 88.19,-154.49 410.69,-206.42 614.78,-112.67 229.34,105.34 159.87,367.5 159.87,658.97 0,1741.08 23.89,11590.07 -18.64,11679.03zm7519.08 -5580.83c85.88,60.87 447.68,994.04 488.47,1141.79l-1342.76 3.57 854.29 -1145.35zm-3429.22 1143.07c30.71,-130.8 413.14,-863.33 514.73,-1080.77l126.74 -275.43c46.44,-66.96 -3.83,-28.85 71.16,-60.01l235.36 1420.01 -947.99 -3.79zm-854.04 -914.89l99.78 917.04 -487.1 -0.71 309.63 -821.36c49.73,-119.3 1.13,-60.41 77.69,-94.97zm-207.36 -863.57c195.69,374.7 22.6,584.47 -118.4,923.24 -69.49,166.96 -265,748.72 -350.59,840.45 -65.26,-316.9 -147.68,-628.16 -254.48,-926.48 -97.42,-272.09 -255.09,-598.61 -327.94,-851.4 304.72,-131.28 736.58,-25.27 1051.41,14.17zm6367.25 1782.54l-588.35 -2.12c10.24,-386.37 231.67,-887.14 369.82,-1203.61 120.81,-276.77 449.53,-873.17 628.33,-964.57l-409.79 2170.29zm-5596.74 0.8l-221.83 -13.48c-38.67,-460.33 -78.89,-870.85 -173.42,-1321.62 -84.12,-401.13 -210.57,-815.28 -281.13,-1201.09 412.57,-62.54 721.83,-1.58 1090.44,133.49 134.33,49.22 341.43,121.81 404.06,236.34 205.96,376.68 -187.65,839.07 -421.89,1334.78 -131.42,278.11 -266.53,560.73 -396.22,831.58zm4737.02 -2.58l-253.69 -0.09 -545.12 -1344.83c55.82,-107.04 293.9,-317.24 384.88,-392.62 470.52,-389.84 822.7,-675.84 1552.25,-785.55l-360.24 532.38c-482.09,769.21 -558.51,1078.01 -778.08,1990.73zm-13598.05 -3524.28c266.63,-203 922.89,-292.11 1350.48,-76.55 382.8,192.97 634.7,546.92 683.64,1024.03 49.63,483.83 -47.39,1018.19 -337.48,1394.11 -51.51,66.76 -82.19,82.44 -133.58,150.56 -611.65,810.92 -467.68,2265.44 -789.17,2622.4 -128.1,142.23 -83.71,117.14 -175.24,149.18 -165.36,-232 -152.59,-209.44 -216.39,-584.84 -109.73,-645.66 -120.05,-1651.22 -767.58,-1657.79 -788.95,-8 -620.3,1360.49 -838.24,1992.07 -46.82,135.7 -102.88,147.79 -151.57,249.3 -222.95,-117.15 -204.37,-141.92 -286.98,-409.5 -210.45,-681.69 -204.58,-1241.54 -354.03,-1707.92 -252.67,-788.48 -821.78,-895.66 -812.4,-1960.58 7.23,-819.8 508.95,-1435.01 1346.06,-1392.47 414.4,21.06 697.99,220.13 997.59,378.46 452.75,239.28 688.99,489.6 960.64,255.95 -54.38,-156.52 -73.86,-207.18 -185.92,-272.53 -90.02,-52.5 -220.5,-93.06 -289.82,-153.88zm9420.59 -122.23c787.93,-1.38 1872.88,771.47 2347.61,1313.68 233.67,266.88 583.16,628.2 685.39,960.18 -32.76,38.53 -58.04,70.36 -96.01,112.55 -138.97,154.43 -80.67,38.82 -291.75,347.9l-537.45 766.07c-94.77,123.86 -93.41,149.39 -297.42,150.68 -287.59,1.81 -590.16,9.12 -876.47,-0.97 -209.77,-1446.79 -371.32,-2330.8 -933.91,-3650.09zm-4357.15 -9842.18c-1644.48,-4.26 -3440.4,548.3 -4769.21,1167.9 -737.35,343.81 -1685.06,949.7 -2267.59,1429.18l-1347.81 1259.03c-30.42,38.78 -52.06,71.24 -85.12,104.89 -44.99,45.79 -53.84,40.76 -95.67,93.16 -385.76,483.29 -576.22,679.67 -961.62,1266.32 -364.62,555.03 -747.03,1224.46 -1034.73,1927.12 -639.22,1561.18 -990.04,3193.08 -925.88,5015.66 90.83,2580.14 1026.38,5114.85 2588.64,7024.05l1258.09 1348.26c39.59,31.27 70.34,51 106.31,84.06l188.96 166.38c459.08,376.9 579.83,501.1 1170.37,890.95 2093.53,1382.07 4337.13,1997.85 6952.26,1965.27 2341.24,-29.17 4827.51,-946.94 6609.29,-2277.42l415.64 -318.76c238.39,-186.07 496.43,-386.67 695.22,-608.13 93.25,-103.89 279.69,-248.04 477.11,-471.46l181.01 -173.69c503.68,-586.62 657.83,-787.09 1136.49,-1470.87 1321.32,-1887.51 2058.74,-4565.48 1964.46,-6941.37 -100.86,-2541.77 -1002.1,-5097.77 -2594.26,-7022.97l-508.41 -605.74c-64.86,-80.8 -123.39,-109.13 -192.27,-186.31l-1572.63 -1389.64c-648.01,-483.78 -1596.04,-1026.73 -2392.92,-1351.68 -1699.89,-693.18 -3044.12,-919.14 -4995.72,-924.2z"/>
   <path class="fil1" d="M12011.23 522.02c1951.6,5.06 3295.83,231.02 4995.72,924.2 796.89,324.95 1744.91,867.9 2392.92,1351.68l1572.63 1389.64c68.87,77.18 127.41,105.51 192.27,186.31l508.41 605.74c1592.16,1925.2 2493.4,4481.19 2594.26,7022.97 94.28,2375.89 -643.14,5053.86 -1964.46,6941.37 -478.67,683.78 -632.81,884.25 -1136.49,1470.87l-181.01 173.69c-197.42,223.42 -383.86,367.57 -477.11,471.46 -198.79,221.46 -456.84,422.06 -695.22,608.13l-415.64 318.76c-1781.78,1330.48 -4268.05,2248.25 -6609.29,2277.42 -2615.13,32.58 -4858.73,-583.2 -6952.26,-1965.27 -590.54,-389.85 -711.29,-514.05 -1170.37,-890.95l-188.96 -166.38c-35.97,-33.07 -66.72,-52.79 -106.31,-84.06l-1258.09 -1348.26c-1562.25,-1909.2 -2497.81,-4443.91 -2588.64,-7024.05 -64.16,-1822.57 286.65,-3454.48 925.88,-5015.66 287.7,-702.67 670.11,-1372.1 1034.73,-1927.12 385.4,-586.65 575.87,-783.02 961.62,-1266.32 41.83,-52.4 50.68,-47.37 95.67,-93.16 33.07,-33.65 54.7,-66.11 85.12,-104.89l1347.81 -1259.03c582.53,-479.48 1530.24,-1085.37 2267.59,-1429.18 1328.81,-619.6 3124.73,-1172.16 4769.21,-1167.9zm12771.05 12404.44c61.68,-1950.99 -252.09,-3592.07 -921.77,-5252.24 -303.76,-753.04 -680.99,-1427.12 -1068.41,-2035.91 -153.87,-241.8 -636.08,-908.22 -833.27,-1133.7l-1034.54 -1098.59c-112.74,-137.92 -360.81,-327.79 -507.57,-463.79 -589.37,-546.21 -1835.26,-1325.34 -2562.28,-1680.11 -3139.85,-1532.18 -6929.8,-1701.9 -10185.58,-330.33 -1589.94,669.8 -2271.1,1195.09 -3464.82,2152.62l-1253.28 1281.37c-571.63,629.95 -1307.09,1788.69 -1684.1,2557.99 -1539.78,3141.95 -1703.09,6937.47 -339.41,10188.58 428.1,1020.61 1167.96,2318.89 1903.07,3168.21l1122.36 1199.29c949.81,824.88 1760.28,1447.96 2980.19,2044.84 3156.42,1544.37 6924.8,1688.22 10186.78,331.4 808.72,-336.39 1839.65,-889.94 2498.23,-1388.17l431.34 -326.53c325.91,-250.35 406.6,-352 629.38,-531.96 175.3,-141.62 914.22,-874.2 1074.27,-1082.81 281.47,-366.88 626.64,-730.72 916.92,-1192.39 396.34,-630.38 485.26,-810.79 851.13,-1470.9 332.07,-599.15 661.72,-1580.18 848.69,-2253.63 226.09,-814.33 384.91,-1805.2 412.68,-2683.25z"/>
   <path class="fil2" d="M6947.79 10486.43c69.33,60.82 199.8,101.38 289.82,153.88 112.05,65.35 131.54,116.01 185.92,272.53 -271.65,233.64 -507.89,-16.67 -960.64,-255.95 -299.59,-158.33 -583.19,-357.4 -997.59,-378.46 -837.11,-42.54 -1338.83,572.68 -1346.06,1392.47 -9.38,1064.92 559.72,1172.1 812.4,1960.58 149.45,466.38 143.58,1026.23 354.03,1707.92 82.61,267.59 64.04,292.36 286.98,409.5 48.69,-101.51 104.75,-113.61 151.57,-249.3 217.94,-631.58 49.29,-2000.07 838.24,-1992.07 647.53,6.57 657.85,1012.13 767.58,1657.79 63.8,375.39 51.03,352.84 216.39,584.84 91.53,-32.04 47.13,-6.95 175.24,-149.18 321.49,-356.96 177.52,-1811.48 789.17,-2622.4 51.39,-68.13 82.07,-83.8 133.58,-150.56 290.09,-375.92 387.11,-910.28 337.48,-1394.11 -48.94,-477.11 -300.84,-831.05 -683.64,-1024.03 -427.6,-215.56 -1083.85,-126.44 -1350.48,76.55z"/>
   <path class="fil2" d="M12009.84 18446.17c42.53,-88.95 18.64,-9937.95 18.64,-11679.03 0,-291.47 69.48,-553.63 -159.87,-658.97 -204.09,-93.75 -526.6,-41.82 -614.78,112.67 -74.92,131.25 -34.33,2924.96 -34.33,3318l0 8362.47c0,283.4 -68.72,562.3 165.25,676.1 219.32,106.67 545.77,34.64 625.08,-131.23z"/>
   <path class="fil2" d="M16368.38 10364.2c562.59,1319.29 724.14,2203.3 933.91,3650.09 286.3,10.09 588.87,2.77 876.47,0.97 204.02,-1.28 202.65,-26.82 297.42,-150.68l537.45 -766.07c211.08,-309.09 152.77,-193.47 291.75,-347.9 37.97,-42.19 63.25,-74.01 96.01,-112.55 -102.23,-331.98 -451.72,-693.3 -685.39,-960.18 -474.73,-542.21 -1559.69,-1315.06 -2347.61,-1313.68z"/>
   <path class="fil2" d="M15132.43 11477.1c70.56,385.81 197.01,799.96 281.13,1201.09 94.53,450.77 134.75,861.29 173.42,1321.62l221.83 13.48c129.7,-270.85 264.81,-553.47 396.22,-831.58 234.25,-495.71 627.86,-958.1 421.89,-1334.78 -62.62,-114.53 -269.72,-187.12 -404.06,-236.34 -368.61,-135.07 -677.87,-196.03 -1090.44,-133.49z"/>
   <path class="fil2" d="M20545.83 14010.71c219.57,-912.72 295.99,-1221.52 778.08,-1990.73l360.24 -532.38c-729.55,109.72 -1081.73,395.71 -1552.25,785.55 -90.99,75.38 -329.06,285.58 -384.88,392.62l545.12 1344.83 253.69 0.09z"/>
   <path class="fil2" d="M13986.9 12215.77c72.85,252.79 230.52,579.31 327.94,851.4 106.8,298.32 189.22,609.57 254.48,926.48 85.59,-91.73 281.1,-673.49 350.59,-840.45 141,-338.77 314.09,-548.55 118.4,-923.24 -314.83,-39.44 -746.69,-145.46 -1051.41,-14.17z"/>
   <path class="fil2" d="M21815.35 11842.2c-178.8,91.4 -507.52,687.8 -628.33,964.57 -138.14,316.47 -359.57,817.24 -369.82,1203.61l588.35 2.12 409.79 -2170.29z"/>
   <path class="fil2" d="M18674.62 14010.69l1342.76 -3.57c-40.79,-147.75 -402.59,-1080.91 -488.47,-1141.79l-854.29 1145.35z"/>
   <path class="fil2" d="M16099.7 14008.41l947.99 3.79 -235.36 -1420.01c-74.99,31.16 -24.72,-6.95 -71.16,60.01l-126.74 275.43c-101.59,217.44 -484.02,949.98 -514.73,1080.77z"/>
   <path class="fil2" d="M15245.66 13093.52c-76.56,34.56 -27.96,-24.33 -77.69,94.97l-309.63 821.36 487.1 0.71 -99.78 -917.04z"/>
  </g>
 </g>
</svg>
