<?xml version="1.0" encoding="UTF-8"?>
<!DOCTYPE svg PUBLIC "-//W3C//DTD SVG 1.1//EN" "http://www.w3.org/Graphics/SVG/1.1/DTD/svg11.dtd">
<!-- Creator: CorelDRAW 2018 (64 Bit) -->
<svg xmlns="http://www.w3.org/2000/svg" xml:space="preserve" width="31.2416mm" height="31.2419mm" version="1.1" style="shape-rendering:geometricPrecision; text-rendering:geometricPrecision; image-rendering:optimizeQuality; fill-rule:evenodd; clip-rule:evenodd"
viewBox="0 0 175.6 175.6"
 xmlns:xlink="http://www.w3.org/1999/xlink">
 <defs>
  <style type="text/css">
   <![CDATA[
    .fil1 {fill:#472B29}
    .fil0 {fill:#67C6C3}
    .fil2 {fill:white}
   ]]>
  </style>
 </defs>
 <g id="Capa_x0020_1">
  <metadata id="CorelCorpID_0Corel-Layer"/>
  <path class="fil0" d="M87.8 2.57c-47.07,0 -85.23,38.17 -85.23,85.23 0,47.07 38.17,85.23 85.23,85.23 47.07,0 85.24,-38.17 85.24,-85.23 0,-47.07 -38.17,-85.23 -85.24,-85.23z"/>
  <path class="fil1" d="M87.8 175.6c-48.41,0 -87.8,-39.39 -87.8,-87.8 0,-48.41 39.39,-87.8 87.8,-87.8 48.41,0 87.8,39.39 87.8,87.8 0,48.41 -39.39,87.8 -87.8,87.8zm0 -170.47c-45.58,0 -82.67,37.08 -82.67,82.67 0,45.59 37.09,82.67 82.67,82.67 45.58,0 82.67,-37.08 82.67,-82.67 0,-45.59 -37.09,-82.67 -82.67,-82.67z"/>
  <path class="fil1" d="M151.59 121.48c-0.27,0 -0.54,-0.06 -0.8,-0.19 -0.91,-0.44 -1.29,-1.54 -0.85,-2.45 0.46,-0.95 0.9,-1.91 1.32,-2.87 1.61,-3.74 2.9,-7.66 3.82,-11.64 0.23,-0.99 1.21,-1.61 2.2,-1.37 0.99,0.23 1.6,1.21 1.37,2.2 -0.97,4.2 -2.32,8.33 -4.02,12.27 -0.44,1.02 -0.9,2.02 -1.39,3.02 -0.32,0.65 -0.98,1.03 -1.65,1.03z"/>
  <path class="fil1" d="M35.5 41.02c-0.45,0 -0.9,-0.17 -1.25,-0.49 -0.74,-0.69 -0.78,-1.85 -0.09,-2.59 11.95,-12.8 28.11,-20.88 45.52,-22.76 1.02,-0.12 1.91,0.62 2.02,1.62 0.11,1 -0.62,1.91 -1.62,2.02 -16.54,1.79 -31.89,9.47 -43.24,21.62 -0.37,0.39 -0.85,0.59 -1.35,0.59z"/>
  <path class="fil1" d="M39.12 141.99c-0.45,0 -0.9,-0.17 -1.25,-0.5 -24.97,-23.32 -30.66,-60.25 -13.83,-89.81 0.5,-0.88 1.62,-1.18 2.5,-0.69 0.88,0.5 1.19,1.62 0.69,2.5 -15.98,28.09 -10.58,63.17 13.15,85.32 0.74,0.69 0.78,1.85 0.09,2.59 -0.36,0.39 -0.85,0.59 -1.34,0.59z"/>
  <path class="fil1" d="M119.02 154.23c-0.68,0 -1.34,-0.38 -1.65,-1.04 -0.44,-0.91 -0.06,-2 0.85,-2.45 7.72,-3.72 14.63,-8.82 20.54,-15.14 2.38,-2.55 4.59,-5.3 6.55,-8.16 0.57,-0.83 1.72,-1.04 2.55,-0.47 0.84,0.57 1.05,1.72 0.47,2.55 -2.06,3 -4.38,5.89 -6.89,8.58 -6.22,6.66 -13.49,12.02 -21.63,15.94 -0.26,0.13 -0.53,0.18 -0.79,0.18z"/>
  <g>
   <path class="fil2" d="M74.97 172.12l0 -60.49 -22 0 0 -22 22 0 0 -21.83c-0.48,-19.58 19.25,-38.97 51.32,-28.07l0 20.57 -12.36 -0.08c-9.51,0 -13.3,2.23 -13.3,8.83l0 20.57 25.03 0 -4.4 22 -20.63 0 0 60.49 -25.66 0zm0 0l0 0 0 0z"/>
  </g>
  <path class="fil1" d="M102.46 172.12l-3.67 0 0 -62.32 20.96 0 3.67 -18.33 -24.62 0 0 -22.4c0,-9.38 7.27,-10.67 15.13,-10.67l10.53 0.07 0 -17.4c-14.09,-4.48 -26.87,-3.23 -36.1,3.57 -7.45,5.48 -11.77,14.12 -11.56,23.14l0 23.7 -22 0 0 18.33 22 0 0 62.32 -3.67 0 0 -58.66 -22 0 0 -25.66 22 0 0 -19.99c-0.25,-10.16 4.63,-19.95 13.05,-26.13 10.5,-7.71 24.96,-9.02 40.7,-3.67l1.24 0.42 0 23.73 -14.21 -0.09c-9.68,0 -11.46,2.36 -11.46,7l0 18.74 25.43 0 -5.13 25.66 -20.3 0 0 58.66z"/>
  <path class="fil1" d="M87.8 175.53c-48.37,0 -87.72,-39.35 -87.72,-87.73 0,-48.37 39.35,-87.73 87.72,-87.73 48.37,0 87.72,39.36 87.72,87.73 0,48.37 -39.35,87.73 -87.72,87.73zm0 -170.32c-45.54,0 -82.59,37.05 -82.59,82.59 0,45.54 37.05,82.59 82.59,82.59 45.54,0 82.59,-37.05 82.59,-82.59 0,-45.54 -37.05,-82.59 -82.59,-82.59z"/>
 </g>
</svg>
