<?xml version="1.0" encoding="UTF-8"?>
<!DOCTYPE svg PUBLIC "-//W3C//DTD SVG 1.1//EN" "http://www.w3.org/Graphics/SVG/1.1/DTD/svg11.dtd">
<!-- Creator: CorelDRAW 2018 (64 Bit) -->
<svg xmlns="http://www.w3.org/2000/svg" xml:space="preserve" width="36.218mm" height="36.218mm" version="1.1" style="shape-rendering:geometricPrecision; text-rendering:geometricPrecision; image-rendering:optimizeQuality; fill-rule:evenodd; clip-rule:evenodd"
viewBox="0 0 233.12 233.12"
 xmlns:xlink="http://www.w3.org/1999/xlink">
 <defs>
  <style type="text/css">
   <![CDATA[
    .str0 {stroke:#67C6C3;stroke-width:1.29;stroke-miterlimit:22.9256}
    .fil1 {fill:#472B29}
    .fil0 {fill:#67C6C3}
    .fil2 {fill:white}
   ]]>
  </style>
 </defs>
 <g id="Capa_x0020_1">
  <metadata id="CorelCorpID_0Corel-Layer"/>
  <path class="fil0 str0" d="M229.41 35.5l0 162.13c0,17.54 -14.25,31.79 -31.79,31.79l-162.12 -0c-17.54,0 -31.79,-14.25 -31.79,-31.79l0 -162.12c0,-17.54 14.25,-31.79 31.79,-31.79l162.12 0c17.54,0 31.79,14.25 31.79,31.79z"/>
  <path class="fil0 str0" d="M229.41 96.69l0 100.93c0,17.54 -14.25,31.79 -31.79,31.79l-162.12 0c-17.54,0 -31.79,-14.25 -31.79,-31.79l0 -162.12c0,-17.54 14.25,-31.79 31.79,-31.79l100.93 0c38.36,22.52 70.47,54.62 92.98,92.98z"/>
  <path class="fil0" d="M222.31 217.65c-5.83,7.15 -14.73,11.76 -24.69,11.76l-162.12 0c-17.54,0 -31.79,-14.25 -31.79,-31.79l0 -162.12c0,-9.96 4.61,-18.86 11.76,-24.69 111.84,5.19 201.65,95 206.84,206.84z"/>
  <path class="fil0 str0" d="M180.14 227.82l0 1.59 -144.64 0c-17.54,0 -31.79,-14.25 -31.79,-31.79l0 -144.64 1.59 0c96.59,0 174.84,78.25 174.84,174.84z"/>
  <path class="fil0 str0" d="M137.75 227.82c0,0.53 0,1.06 -0.05,1.59l-102.2 0c-17.54,0 -31.79,-14.25 -31.79,-31.79l0 -102.2c0.53,-0.05 1.06,-0.05 1.59,-0.05 73.17,0 132.46,59.29 132.46,132.45z"/>
  <path class="fil0 str0" d="M100.66 227.82c0,0.53 0,1.06 -0.05,1.59l-65.11 0c-17.54,0 -31.79,-14.25 -31.79,-31.79l0 -65.11c0.53,-0.05 1.06,-0.05 1.59,-0.05 52.66,0 95.37,42.7 95.37,95.37z"/>
  <path class="fil0 str0" d="M68.88 227.82c0,0.53 0,1.06 -0.05,1.59l-33.33 0c-17.54,0 -31.79,-14.25 -31.79,-31.79l0 -33.33c0.53,-0.05 1.06,-0.05 1.59,-0.05 35.13,0 63.58,28.45 63.58,63.58z"/>
  <path class="fil1" d="M197.62 233.12l-162.12 0c-19.57,0 -35.5,-15.93 -35.5,-35.5l0 -162.12c0,-19.57 15.93,-35.5 35.5,-35.5l162.12 0c19.57,0 35.5,15.93 35.5,35.5l0 162.13c0,19.57 -15.93,35.5 -35.5,35.5zm-162.12 -225.7c-15.49,0 -28.08,12.59 -28.08,28.08l0 162.13c0,15.48 12.59,28.08 28.08,28.08l162.12 -0c15.49,0 28.08,-12.59 28.08,-28.08l0 -162.12c0,-15.48 -12.59,-28.08 -28.08,-28.08l-162.12 0z"/>
  <path class="fil2" d="M116.51 198.68c-21.1,0 -28.96,-0.06 -36.98,-0.42 -7.38,-0.33 -13.13,-1.44 -18.65,-3.6 -5.37,-2.07 -9.57,-4.8 -13.62,-8.85 -4.02,-4.02 -6.74,-8.22 -8.85,-13.62 -2.1,-5.37 -3.21,-11.12 -3.6,-18.65 -0.37,-8.09 -0.42,-15.94 -0.42,-36.98 0,-21.01 0.06,-28.84 0.42,-36.93 0.33,-7.38 1.44,-13.13 3.6,-18.65 2.1,-5.44 4.83,-9.64 8.85,-13.62 4.02,-4.02 8.22,-6.74 13.62,-8.85 5.51,-2.16 11.27,-3.27 18.65,-3.6 8.3,-0.38 16.25,-0.48 36.98,-0.48 20.74,0 28.68,0.1 36.93,0.48 7.38,0.33 13.13,1.44 18.65,3.6 5.44,2.1 9.64,4.83 13.61,8.85 3.99,3.94 6.73,8.13 8.91,13.62 2.11,5.57 3.21,11.33 3.55,18.66 0.37,8.38 0.48,16.32 0.48,36.93 0,20.65 -0.11,28.6 -0.48,36.98 -0.33,7.32 -1.43,13.08 -3.55,18.65 -2.17,5.43 -4.92,9.64 -8.91,13.62 -3.96,4.01 -8.14,6.74 -13.56,8.85 -5.59,2.16 -11.36,3.27 -18.7,3.6 -8.03,0.36 -15.87,0.42 -36.93,0.42zm-6.94 -148.35c-14.58,0 -22.58,0.11 -29.53,0.42 -7.07,0.33 -10.96,1.51 -13.57,2.5 -3.23,1.27 -5.54,2.78 -7.99,5.23 -2.44,2.44 -3.95,4.74 -5.2,7.94 -1,2.62 -2.19,6.52 -2.52,13.61 -0.36,7.97 -0.42,15.33 -0.42,36.47 0,21.19 0.06,28.55 0.42,36.52 0.33,7.04 1.52,10.94 2.51,13.54 1.27,3.29 2.72,5.53 5.19,7.99 2.48,2.43 4.8,3.94 8.02,5.2 2.52,0.99 6.33,2.16 13.56,2.5 8.26,0.37 16.1,0.47 36.48,0.47 20.43,0 28.28,-0.11 36.52,-0.47 7.4,-0.34 11.31,-1.59 13.59,-2.51 3.17,-1.22 5.47,-2.71 7.93,-5.12 2.44,-2.48 3.95,-4.81 5.24,-8.03 0.98,-2.56 2.13,-6.4 2.47,-13.56 0.37,-8.33 0.47,-16.18 0.47,-36.53 0,-20.31 -0.11,-28.15 -0.47,-36.47 -0.33,-7.15 -1.49,-10.99 -2.46,-13.54 -1.25,-3.24 -2.76,-5.56 -5.19,-7.99 -2.61,-2.56 -4.73,-3.93 -8.11,-5.22 -2.44,-0.98 -6.2,-2.14 -13.48,-2.49 -8.13,-0.37 -15.98,-0.47 -36.53,-0.47l-6.95 0z"/>
  <g>
   <path class="fil1" d="M116.51 36.03c20.71,0 28.64,0.1 36.85,0.48 7.2,0.32 12.8,1.4 18.16,3.5 5.22,2.01 9.24,4.63 13.07,8.5 3.81,3.76 6.44,7.79 8.52,13.03 2.06,5.42 3.13,11.03 3.45,18.17 0.37,8.35 0.47,16.28 0.47,36.86 0,20.63 -0.1,28.56 -0.47,36.91 -0.33,7.15 -1.39,12.75 -3.43,18.12 -2.1,5.24 -4.74,9.28 -8.57,13.11 -3.79,3.84 -7.8,6.46 -13,8.48 -5.42,2.09 -11.04,3.17 -18.2,3.5 -8,0.37 -15.82,0.42 -36.85,0.42 -21.08,0 -28.92,-0.06 -36.91,-0.42 -7.2,-0.32 -12.8,-1.4 -18.15,-3.5 -5.14,-1.99 -9.17,-4.6 -13.06,-8.49 -3.86,-3.86 -6.47,-7.89 -8.49,-13.08 -2.03,-5.2 -3.11,-10.8 -3.49,-18.14 -0.37,-8.06 -0.42,-15.9 -0.42,-36.92 0,-20.98 0.06,-28.8 0.42,-36.86 0.32,-7.2 1.4,-12.8 3.5,-18.16 2.01,-5.22 4.63,-9.25 8.49,-13.06 3.85,-3.85 7.88,-6.47 13.07,-8.49 5.35,-2.09 10.94,-3.17 18.14,-3.5 8.27,-0.37 16.2,-0.47 36.91,-0.47l0 0zm0 148.3c20.46,0 28.32,-0.1 36.6,-0.47 7.65,-0.35 11.71,-1.66 14.08,-2.61 3.4,-1.31 5.86,-2.9 8.52,-5.51 2.58,-2.63 4.19,-5.11 5.58,-8.58 1.01,-2.66 2.22,-6.65 2.56,-14.03 0.37,-8.35 0.47,-16.22 0.47,-36.6 0,-20.34 -0.1,-28.2 -0.47,-36.55 -0.34,-7.37 -1.55,-11.36 -2.56,-14.04 -1.32,-3.42 -2.98,-5.97 -5.56,-8.55 -2.75,-2.7 -5.09,-4.21 -8.61,-5.55 -2.58,-1.03 -6.49,-2.25 -14.01,-2.61 -8.15,-0.37 -16.02,-0.47 -36.6,-0.47l-6.95 -0c-14.6,0 -22.62,0.11 -29.61,0.42 -7.29,0.34 -11.34,1.57 -14.08,2.61 -3.4,1.33 -5.95,3 -8.52,5.58 -2.58,2.58 -4.24,5.11 -5.57,8.5 -1.04,2.72 -2.28,6.78 -2.62,14.1 -0.37,8.01 -0.42,15.37 -0.42,36.55 0,21.21 0.05,28.6 0.42,36.6 0.34,7.27 1.57,11.32 2.61,14.04 1.34,3.46 2.95,5.94 5.56,8.56 2.6,2.55 5.15,4.21 8.55,5.54 2.63,1.03 6.61,2.26 14.07,2.61 8.29,0.38 16.15,0.48 36.56,0.48l0 0zm0 -150.95c-21.15,0 -28.9,0.11 -37.03,0.48 -7.51,0.34 -13.36,1.48 -18.98,3.67 -5.55,2.16 -9.85,4.96 -13.98,9.08 -4.13,4.09 -6.94,8.4 -9.09,13.98 -2.21,5.63 -3.34,11.49 -3.67,18.99 -0.37,8.14 -0.42,16 -0.42,36.98 0,21.03 0.06,28.89 0.42,37.03 0.4,7.65 1.53,13.5 3.67,18.98 2.16,5.54 4.96,9.85 9.09,13.98 4.17,4.17 8.48,6.96 13.98,9.09 5.63,2.2 11.49,3.34 18.99,3.67 8.14,0.37 16,0.43 37.03,0.43 20.98,0 28.83,-0.05 36.98,-0.43 7.47,-0.33 13.35,-1.47 19.04,-3.67 5.57,-2.17 9.86,-4.97 13.93,-9.09 4.09,-4.09 6.9,-8.39 9.15,-13.99 2.17,-5.7 3.28,-11.55 3.62,-18.98 0.36,-8.14 0.48,-15.9 0.48,-37.03 0,-21.08 -0.11,-28.84 -0.48,-36.98 -0.34,-7.43 -1.45,-13.28 -3.63,-18.99 -2.23,-5.63 -5.05,-9.94 -9.13,-13.97 -4.09,-4.13 -8.39,-6.93 -13.98,-9.09 -5.63,-2.2 -11.49,-3.33 -18.99,-3.67 -8.09,-0.36 -15.83,-0.47 -36.98,-0.47l0 0zm0 148.3c-20.36,0 -28.19,-0.1 -36.43,-0.47 -7.08,-0.33 -10.79,-1.47 -13.22,-2.43 -3.08,-1.21 -5.3,-2.65 -7.66,-4.97 -2.34,-2.34 -3.74,-4.48 -4.95,-7.62 -0.96,-2.52 -2.11,-6.33 -2.44,-13.21 -0.36,-7.91 -0.42,-15.27 -0.42,-36.47 0,-21.17 0.06,-28.52 0.42,-36.43 0.32,-6.93 1.47,-10.73 2.45,-13.28 1.19,-3.04 2.63,-5.24 4.97,-7.58 2.33,-2.34 4.54,-3.78 7.62,-4.99 2.51,-0.95 6.32,-2.12 13.24,-2.43 6.91,-0.3 14.91,-0.41 29.48,-0.41l6.95 0c20.54,0 28.37,0.1 36.48,0.47 7.13,0.33 10.77,1.47 13.15,2.42 3.24,1.24 5.24,2.53 7.74,4.98 2.31,2.31 3.75,4.53 4.95,7.62 0.93,2.45 2.06,6.2 2.38,13.21 0.37,8.25 0.47,16.09 0.47,36.42 0,20.38 -0.11,28.23 -0.47,36.48 -0.33,7 -1.45,10.74 -2.39,13.21 -1.24,3.1 -2.66,5.28 -5,7.67 -2.36,2.31 -4.51,3.71 -7.59,4.9 -2.25,0.89 -5.99,2.1 -13.25,2.43 -8.24,0.37 -16.08,0.47 -36.48,0.47l0 0z"/>
  </g>
  <path class="fil2" d="M161.59 62.26c-5.12,0 -9.27,4.15 -9.27,9.27 0,5.12 4.15,9.27 9.27,9.27 5.12,0 9.27,-4.15 9.27,-9.27 0,-5.12 -4.15,-9.27 -9.27,-9.27l0 0z"/>
  <g>
   <path class="fil1" d="M161.59 63.58c4.39,0 7.95,3.56 7.95,7.95 0,4.39 -3.56,7.95 -7.95,7.95 -4.39,0 -7.95,-3.56 -7.95,-7.95 0,-4.39 3.56,-7.94 7.95,-7.95l0 0 0 0zm0 -2.65l0 0c-5.84,0.01 -10.6,4.76 -10.6,10.6 0,5.84 4.75,10.6 10.6,10.6 5.85,0 10.6,-4.75 10.6,-10.6 0,-5.85 -4.75,-10.6 -10.6,-10.6l0 0z"/>
  </g>
  <path class="fil2" d="M116.5 71.55c-24.87,0 -45.04,20.17 -45.04,45.04 0,24.87 20.16,45.03 45.04,45.03 24.87,0 45.03,-20.16 45.03,-45.03 0,-24.87 -20.16,-45.04 -45.03,-45.04l0 0zm0 15.9c16.09,0 29.14,13.04 29.14,29.14 0,16.09 -13.05,29.14 -29.14,29.14 -16.1,0 -29.14,-13.05 -29.14,-29.14 0,-16.1 13.04,-29.14 29.14,-29.14z"/>
  <path class="fil1" d="M116.5 162.94c-25.56,0 -46.37,-20.8 -46.37,-46.36 0,-25.56 20.8,-46.36 46.37,-46.36 25.56,0 46.35,20.8 46.35,46.36 0,25.57 -20.79,46.36 -46.35,46.36zm0 -90.07c-24.11,0 -43.72,19.61 -43.72,43.71 0,24.1 19.61,43.71 43.72,43.71 24.1,0 43.7,-19.61 43.7,-43.71 0,-24.1 -19.6,-43.71 -43.7,-43.71zm0 74.18c-16.8,0 -30.47,-13.67 -30.47,-30.47 0,-16.8 13.66,-30.47 30.47,-30.47 16.8,0 30.47,13.67 30.47,30.47 0,16.8 -13.66,30.47 -30.47,30.47zm0 -58.28c-15.34,0 -27.82,12.48 -27.82,27.82 0,15.34 12.48,27.82 27.82,27.82 15.34,0 27.82,-12.48 27.82,-27.82 0,-15.34 -12.48,-27.82 -27.82,-27.82z"/>
 </g>
</svg>
